<?xml version="1.0" encoding="UTF-8"?>
<svg width="100px" height="100px" viewBox="0 0 100 100" version="1.1" xmlns="http://www.w3.org/2000/svg" xmlns:xlink="http://www.w3.org/1999/xlink">
    <title>img/img_prohibit</title>
    <defs>
        <linearGradient x1="11.3632886%" y1="4.09244116%" x2="97.6079633%" y2="100%" id="linearGradient-1">
            <stop stop-color="#3A79EE" offset="0%"></stop>
            <stop stop-color="#A3C3FF" offset="100%"></stop>
        </linearGradient>
        <linearGradient x1="11.3632886%" y1="4.09244116%" x2="97.6079633%" y2="100%" id="linearGradient-2">
            <stop stop-color="#FFFFFF" offset="0%"></stop>
            <stop stop-color="#CADCFF" offset="100%"></stop>
        </linearGradient>
    </defs>
    <g id="Vision-1" stroke="none" stroke-width="1" fill="none" fill-rule="evenodd">
        <g id="Room-Details_Radar-Error" transform="translate(-147, -324)">
            <g id="编组" transform="translate(40, 324)">
                <g id="img/img_prohibit" transform="translate(110, 2)">
                    <ellipse id="椭圆形" fill-opacity="0.4" fill="#A5C5FF" cx="47" cy="93.5" rx="47" ry="3.5"></ellipse>
                    <circle id="椭圆形" fill="url(#linearGradient-1)" opacity="0.517981393" cx="20" cy="2" r="2"></circle>
                    <circle id="椭圆形备份" fill="#D8E6FF" cx="87" cy="76" r="2"></circle>
                    <circle id="椭圆形备份-2" fill="url(#linearGradient-1)" cx="8.5" cy="13.5" r="3.5"></circle>
                    <circle id="椭圆形" fill="url(#linearGradient-1)" cx="47" cy="44" r="38"></circle>
                    <path d="M37.1005051,27.0294373 L46.9999712,36.9289712 L56.8994949,27.0294373 C58.8521164,25.0768158 62.0179413,25.0768158 63.9705627,27.0294373 C65.9231842,28.9820587 65.9231842,32.1478836 63.9705627,34.1005051 L54.0709712,43.9999712 L63.9705627,53.8994949 C65.9231842,55.8521164 65.9231842,59.0179413 63.9705627,60.9705627 C62.0179413,62.9231842 58.8521164,62.9231842 56.8994949,60.9705627 L46.9999712,51.0709712 L37.1005051,60.9705627 C35.1478836,62.9231842 31.9820587,62.9231842 30.0294373,60.9705627 C28.0768158,59.0179413 28.0768158,55.8521164 30.0294373,53.8994949 L39.9289712,43.9999712 L30.0294373,34.1005051 C28.0768158,32.1478836 28.0768158,28.9820587 30.0294373,27.0294373 C31.9820587,25.0768158 35.1478836,25.0768158 37.1005051,27.0294373 Z" id="形状结合" fill="url(#linearGradient-2)"></path>
                </g>
            </g>
        </g>
    </g>
</svg>