<?xml version="1.0" encoding="UTF-8"?>
<svg width="100px" height="100px" viewBox="0 0 100 100" version="1.1" xmlns="http://www.w3.org/2000/svg" xmlns:xlink="http://www.w3.org/1999/xlink">
    <title>img/img_error</title>
    <defs>
        <linearGradient x1="50%" y1="0%" x2="50%" y2="100%" id="linearGradient-1">
            <stop stop-color="#F6B043" offset="0%"></stop>
            <stop stop-color="#FBD878" offset="100%"></stop>
        </linearGradient>
    </defs>
    <g id="Vision-1" stroke="none" stroke-width="1" fill="none" fill-rule="evenodd">
        <g id="Room-Details_Delete-Room" transform="translate(-147, -281)" fill="url(#linearGradient-1)">
            <g id="编组" transform="translate(16, 251)">
                <g id="img/img_error" transform="translate(135.0065, 38.8675)">
                    <path d="M48.0270299,0.556099427 C48.6090172,0.899682278 49.0944602,1.38512527 49.4380431,1.96711254 L91.4315541,73.0989782 C92.5546356,75.0013407 91.9229035,77.4539476 90.020541,78.5770291 C89.4045613,78.9406797 88.7023351,79.1324971 87.9870221,79.1324971 L4,79.1324971 C1.790861,79.1324971 7.10542736e-15,77.3416361 7.10542736e-15,75.1324971 C7.10542736e-15,74.4171841 0.191817347,73.7149578 0.555467976,73.0989782 L42.548979,1.96711254 C43.6720605,0.064750038 46.1246674,-0.566982053 48.0270299,0.556099427 Z M45.993511,61.1324971 C43.784372,61.1324971 41.993511,62.9233581 41.993511,65.1324971 C41.993511,67.3416361 43.784372,69.1324971 45.993511,69.1324971 C48.20265,69.1324971 49.993511,67.3416361 49.993511,65.1324971 C49.993511,62.9233581 48.20265,61.1324971 45.993511,61.1324971 Z M45.993511,23.1324971 C45.9574972,23.1324971 45.9214851,23.1329971 45.8854852,23.1339971 C43.7376875,23.1936582 42.0449183,24.9831571 42.1045793,27.1309548 L42.7960135,52.0225855 C42.8441066,53.7539364 44.2614924,55.1324971 45.993511,55.1324971 C47.7255297,55.1324971 49.1429155,53.7539364 49.1910086,52.0225855 L49.8824428,27.1309548 C49.8834428,27.0949548 49.8839428,27.0589427 49.8839428,27.0229289 C49.8839428,24.8743027 48.1421372,23.1324971 45.993511,23.1324971 Z" id="形状结合"></path>
                </g>
            </g>
        </g>
    </g>
</svg>