<?xml version="1.0" encoding="UTF-8"?>
<svg width="100px" height="100px" viewBox="0 0 100 100" version="1.1" xmlns="http://www.w3.org/2000/svg" xmlns:xlink="http://www.w3.org/1999/xlink">
    <title>img/img_restart</title>
    <defs>
        <linearGradient x1="67.307373%" y1="16.5992581%" x2="67.307373%" y2="88.677255%" id="linearGradient-1">
            <stop stop-color="#467DE4" stop-opacity="0.90739729" offset="0%"></stop>
            <stop stop-color="#B1CCFF" stop-opacity="0" offset="100%"></stop>
            <stop stop-color="#000000" stop-opacity="0" offset="100%"></stop>
        </linearGradient>
        <linearGradient x1="43.5973833%" y1="85.4275363%" x2="43.5973833%" y2="4.56678891%" id="linearGradient-2">
            <stop stop-color="#467DE4" stop-opacity="0.90739729" offset="0%"></stop>
            <stop stop-color="#B1CCFF" stop-opacity="0" offset="100%"></stop>
        </linearGradient>
    </defs>
    <g id="img/img_restart" stroke="none" stroke-width="1" fill="none" fill-rule="evenodd">
        <path d="M49.5438605,2.96655203 C49.8387516,3.32463409 50,3.77408775 50,4.23796653 L50,8 C73.1959595,8 92,26.8040405 92,50 C92,63.4032305 85.7216508,75.340074 75.9454297,83.0300532 L66.6083806,74.987087 C74.6809783,69.6106791 80,60.4265016 80,50 C80,33.4314575 66.5685425,20 50,20 L50,23.7620335 C50,24.866603 49.1045695,25.7620335 48,25.7620335 C47.5361212,25.7620335 47.0866676,25.600785 46.7285855,25.3058939 L34.8746877,15.5438605 C34.0220371,14.8416776 33.9000589,13.5812361 34.6022417,12.7285855 C34.6840773,12.6292137 34.7753159,12.5379751 34.8746877,12.4561395 L46.7285855,2.69410606 C47.5812361,1.99192322 48.8416776,2.11390143 49.5438605,2.96655203 Z" id="形状结合" fill="url(#linearGradient-1)"></path>
        <path d="M24.0528065,17 L33.3898556,25.0397446 C25.3172578,30.4139989 19.9982362,39.5944977 19.9982362,50.016823 C19.9982362,66.578729 33.4296937,80.0048066 49.9982362,80.0048066 L49.9992362,80.004 L50,76.2379665 C50,75.8320726 50.1234558,75.4372229 50.3518738,75.1049656 L50.4561395,74.966552 C51.1583224,74.1139014 52.4187639,73.9919232 53.2714145,74.6941061 L65.1253123,84.4561395 C65.2246841,84.5379751 65.3159227,84.6292137 65.3977583,84.7285855 C66.0999411,85.5812361 65.9779629,86.8416776 65.1253123,87.5438605 L53.2714145,97.3058939 C52.9133324,97.600785 52.4638788,97.7620335 52,97.7620335 C50.8954305,97.7620335 50,96.866603 50,95.7620335 L50.0002383,92 C26.8022767,92 7.99823618,73.2034914 7.99823618,50.016823 C7.99823618,36.6189612 14.2765854,24.686899 24.0528065,17 Z" id="形状结合" fill="url(#linearGradient-2)"></path>
    </g>
</svg>