<?xml version="1.0" encoding="UTF-8"?>
<svg width="18px" height="18px" viewBox="0 0 18 18" version="1.1" xmlns="http://www.w3.org/2000/svg" xmlns:xlink="http://www.w3.org/1999/xlink">
    <title>icon/Other/ic_action</title>
    <g id="icon/Other/ic_action" stroke="none" stroke-width="1" fill="none" fill-rule="evenodd">
        <rect id="矩形" fill-opacity="0" fill="#FFFFFF" x="0" y="0" width="18" height="18"></rect>
        <path d="M3,10.5 C3.82842712,10.5 4.5,9.82842712 4.5,9 C4.5,8.17157288 3.82842712,7.5 3,7.5 C2.17157288,7.5 1.5,8.17157288 1.5,9 C1.5,9.82842712 2.17157288,10.5 3,10.5 Z" id="椭圆形" fill="#7982A6"></path>
        <path d="M9,10.5 C9.82842712,10.5 10.5,9.82842712 10.5,9 C10.5,8.17157288 9.82842712,7.5 9,7.5 C8.17157288,7.5 7.5,8.17157288 7.5,9 C7.5,9.82842712 8.17157288,10.5 9,10.5 Z" id="椭圆形备份" fill="#7982A6"></path>
        <path d="M15,10.5 C15.8284271,10.5 16.5,9.82842712 16.5,9 C16.5,8.17157288 15.8284271,7.5 15,7.5 C14.1715729,7.5 13.5,8.17157288 13.5,9 C13.5,9.82842712 14.1715729,10.5 15,10.5 Z" id="椭圆形备份-2" fill="#7982A6"></path>
    </g>
</svg>