<svg xmlns="http://www.w3.org/2000/svg" xmlns:xlink="http://www.w3.org/1999/xlink" fill="none" version="1.1" width="18" height="18" viewBox="0 0 18 18"><g><g><path d="M8 4C8 3.4477152501692068 8.447715250169207 3 9 3L9 3C9.552284749830793 3 10 3.4477152501692068 10 4L10 14C10 14.552284749830793 9.552284749830793 15 9 15L9 15C8.447715250169207 15 8 14.552284749830793 8 14Z" fill="#222E61" fill-opacity="1"/></g><g><path d="M3 9C3 8.447715250169207 3.4477152501692068 8 4 8L14 8C14.552284749830793 8 15 8.447715250169207 15 9L15 9C15 9.552284749830793 14.552284749830793 10 14 10L4 10C3.4477152501692068 10 3 9.552284749830793 3 9Z" fill="#222E61" fill-opacity="1"/></g></g></svg>