<?xml version="1.0" encoding="UTF-8"?>
<svg width="18px" height="18px" viewBox="0 0 18 18" version="1.1" xmlns="http://www.w3.org/2000/svg" xmlns:xlink="http://www.w3.org/1999/xlink">
    <title>icon/Other/ic_account</title>
    <g id="icon/Other/ic_account" stroke="none" stroke-width="1" fill="none" fill-rule="evenodd">
        <rect id="矩形" fill-opacity="0" fill="#FFFFFF" x="0" y="0" width="18" height="18"></rect>
        <path d="M13,1 C15.209139,1 17,2.790861 17,5 L17,13 C17,15.209139 15.209139,17 13,17 L5,17 C2.790861,17 1,15.209139 1,13 L1,5 C1,2.790861 2.790861,1 5,1 L13,1 Z M9,10 C6.23857625,10 4,11.3954305 4,12.5 C4,13.6045695 6.23857625,14 9,14 C11.7614237,14 14,13.6045695 14,12.5 C14,11.3954305 11.7614237,10 9,10 Z M9,4 C7.61928813,4 6.5,5.11928813 6.5,6.5 C6.5,7.88071187 7.61928813,9 9,9 C10.3807119,9 11.5,7.88071187 11.5,6.5 C11.5,5.11928813 10.3807119,4 9,4 Z" id="形状结合" fill="#325BF2" opacity="0.6"></path>
    </g>
</svg>