<?xml version="1.0" encoding="UTF-8"?>
<svg width="18px" height="18px" viewBox="0 0 18 18" version="1.1" xmlns="http://www.w3.org/2000/svg" xmlns:xlink="http://www.w3.org/1999/xlink">
    <title>icon/Other/ic_clean</title>
    <g id="icon/Other/ic_clean" stroke="none" stroke-width="1" fill="none" fill-rule="evenodd">
        <rect id="矩形" fill-opacity="0" fill="#FFFFFF" x="0" y="0" width="18" height="18"></rect>
        <path d="M9,1 C13.418278,1 17,4.581722 17,9 C17,13.418278 13.418278,17 9,17 C4.581722,17 1,13.418278 1,9 C1,4.581722 4.581722,1 9,1 Z M6.87867966,5.46446609 C6.48815536,5.0739418 5.85499039,5.0739418 5.46446609,5.46446609 C5.0739418,5.85499039 5.0739418,6.48815536 5.46446609,6.87867966 L7.586,9 L5.46446609,11.1213203 C5.10398213,11.4818043 5.0762526,12.0490354 5.38127749,12.4413266 L5.46446609,12.5355339 C5.85499039,12.9260582 6.48815536,12.9260582 6.87867966,12.5355339 L9,10.414 L11.1213203,12.5355339 C11.4818043,12.8960179 12.0490354,12.9237474 12.4413266,12.6187225 L12.5355339,12.5355339 C12.9260582,12.1450096 12.9260582,11.5118446 12.5355339,11.1213203 L10.414,9 L12.5355339,6.87867966 C12.8960179,6.51819569 12.9237474,5.95096464 12.6187225,5.55867343 L12.5355339,5.46446609 C12.1450096,5.0739418 11.5118446,5.0739418 11.1213203,5.46446609 L9,7.586 Z" id="形状结合" fill="#7982A6"></path>
    </g>
</svg>