<svg xmlns="http://www.w3.org/2000/svg" xmlns:xlink="http://www.w3.org/1999/xlink" fill="none" version="1.1" width="18" height="18" viewBox="0 0 18 18"><g><g><path d="M2 5C2 5 2 5 2 5L16 5C16 5 16 5 16 5L16 7C16 7 16 7 16 7L2 7C2 7 2 7 2 7Z" fill="#7982A6" fill-opacity="1"/></g><g><path d="M4 9.5C4 9.223857625084603 4.223857625084603 9 4.5 9L5.5 9C5.776142374915397 9 6 9.223857625084603 6 9.5L6 9.5C6 9.776142374915397 5.776142374915397 10 5.5 10L4.5 10C4.223857625084603 10 4 9.776142374915397 4 9.5Z" fill="#7982A6" fill-opacity="1"/></g><g><path d="M4 12.5C4 12.223857625084603 4.223857625084603 12 4.5 12L5.5 12C5.776142374915397 12 6 12.223857625084603 6 12.5L6 12.5C6 12.776142374915397 5.776142374915397 13 5.5 13L4.5 13C4.223857625084603 13 4 12.776142374915397 4 12.5Z" fill="#7982A6" fill-opacity="1"/></g><g><path d="M8 9.5C8 9.223857625084603 8.223857625084603 9 8.5 9L9.5 9C9.776142374915397 9 10 9.223857625084603 10 9.5L10 9.5C10 9.776142374915397 9.776142374915397 10 9.5 10L8.5 10C8.223857625084603 10 8 9.776142374915397 8 9.5Z" fill="#7982A6" fill-opacity="1"/></g><g><path d="M8 12.5C8 12.223857625084603 8.223857625084603 12 8.5 12L9.5 12C9.776142374915397 12 10 12.223857625084603 10 12.5L10 12.5C10 12.776142374915397 9.776142374915397 13 9.5 13L8.5 13C8.223857625084603 13 8 12.776142374915397 8 12.5Z" fill="#7982A6" fill-opacity="1"/></g><g><path d="M12 9.5C12 9.223857625084603 12.223857625084603 9 12.5 9L13.5 9C13.776142374915397 9 14 9.223857625084603 14 9.5L14 9.5C14 9.776142374915397 13.776142374915397 10 13.5 10L12.5 10C12.223857625084603 10 12 9.776142374915397 12 9.5Z" fill="#7982A6" fill-opacity="1"/></g><g><path d="M12 12.5C12 12.223857625084603 12.223857625084603 12 12.5 12L13.5 12C13.776142374915397 12 14 12.223857625084603 14 12.5L14 12.5C14 12.776142374915397 13.776142374915397 13 13.5 13L12.5 13C12.223857625084603 13 12 12.776142374915397 12 12.5Z" fill="#7982A6" fill-opacity="1"/></g><g><path d="M6,0C6.55228,0,7,0.447715,7,1L7,3C7,3.55228,6.55228,4,6,4C5.447715,4,5,3.55228,5,3L5,1C5,0.447715,5.447715,0,6,0" fill-rule="evenodd" fill="#7982A6" fill-opacity="1"/></g><g><path d="M12,0C12.55228,0,13,0.447715,13,1L13,3C13,3.55228,12.55228,4,12,4C11.447715,4,11,3.55228,11,3L11,1C11,0.447715,11.447715,0,12,0" fill-rule="evenodd" fill="#7982A6" fill-opacity="1"/></g><g><rect x="2" y="2" width="14" height="14" rx="2" fill-opacity="0" stroke-opacity="1" stroke="#7982A6" fill="none" stroke-width="2"/></g></g></svg>