<?xml version="1.0" encoding="UTF-8"?>
<svg width="18px" height="18px" viewBox="0 0 18 18" version="1.1" xmlns="http://www.w3.org/2000/svg" xmlns:xlink="http://www.w3.org/1999/xlink">
    <title>icon/Other/ic_clear</title>
    <g id="icon/Other/ic_clear" stroke="none" stroke-width="1" fill="none" fill-rule="evenodd">
        <rect id="矩形" fill-opacity="0" fill="#FFFFFF" x="0" y="0" width="18" height="18"></rect>
        <path d="M9,0 C10.6568542,0 12,1.34314575 12,3 L12,5 L14,5 C15.5976809,5 16.9036609,6.24891996 16.9949073,7.82372721 L17,8 L17,14.5857864 C17,15.6565813 16.6107888,16.6900187 15.8842459,17.5186635 L15.7300648,17.6833779 C15.5409897,17.8853702 15.2766772,18 15,18 L1,18 C0.109095149,18 -0.337071642,16.9228581 0.292893219,16.2928932 C0.745646087,15.8401404 1,15.2260757 1,14.5857864 L1,8 C1,6.34314575 2.34314575,5 4,5 L6,5 L6,3 C6,1.40231912 7.24891996,0.0963391206 8.82372721,0.00509269341 L9,0 Z M9,2 C8.44771525,2 8,2.44771525 8,3 L8,6 C8,6.55228475 7.55228475,7 7,7 L4,7 C3.44771525,7 3,7.44771525 3,8 L3,14.5857864 C3,15.0540753 2.92558919,15.5146923 2.78331537,15.9518294 L2.766,16 L14.54,16 L14.6327585,15.8657909 C14.8371566,15.5389046 14.960968,15.1666272 14.9921713,14.7800958 L15,14.5857864 L15,8 C15,7.44771525 14.5522847,7 14,7 L11,7 C10.4477153,7 10,6.55228475 10,6 L10,3 C10,2.44771525 9.55228475,2 9,2 Z" id="形状结合" fill="#7982A6" fill-rule="nonzero"></path>
        <polygon id="直线" fill="#7982A6" fill-rule="nonzero" points="2 11 16 11 16 9 2 9"></polygon>
        <path d="M7,12 C7.27614237,12 7.5,12.2238576 7.5,12.5 L7.5,13.6972244 C7.5,14.9714375 7.12283142,16.2171407 6.41602515,17.2773501 C6.26284892,17.5071144 5.95241425,17.5692014 5.7226499,17.4160251 C5.49288556,17.2628489 5.43079862,16.9524142 5.58397485,16.7226499 C6.18126945,15.826708 6.5,14.7740125 6.5,13.6972244 L6.5,12.5 C6.5,12.2238576 6.72385763,12 7,12 Z" id="直线-2" fill="#7982A6" fill-rule="nonzero"></path>
        <path d="M10.5,12 C10.7761424,12 11,12.2238576 11,12.5 L11,13.6972244 C11,14.9714375 10.6228314,16.2171407 9.91602515,17.2773501 C9.76284892,17.5071144 9.45241425,17.5692014 9.2226499,17.4160251 C8.99288556,17.2628489 8.93079862,16.9524142 9.08397485,16.7226499 C9.68126945,15.826708 10,14.7740125 10,13.6972244 L10,12.5 C10,12.2238576 10.2238576,12 10.5,12 Z" id="直线-2备份" fill="#7982A6" fill-rule="nonzero"></path>
    </g>
</svg>