<svg xmlns="http://www.w3.org/2000/svg" xmlns:xlink="http://www.w3.org/1999/xlink" fill="none" version="1.1" width="18" height="18" viewBox="0 0 18 18"><g><g><path d="M0 0C0 0 0 0 0 0L18 0C18 0 18 0 18 0L18 18C18 18 18 18 18 18L0 18C0 18 0 18 0 18Z" fill="#FFFFFF" fill-opacity="0"/></g><g><path d="M6,0C6.55228,0,7,0.447715,7,1L11,1C11,0.447715,11.4477,0,12,0C12.5523,0,13,0.447715,13,1L16,1C16.552300000000002,1,17,1.44772,17,2L17,16C17,16.5523,16.552300000000002,17,16,17L2,17C1.447715,17,1,16.5523,1,16L1,2C1,1.44772,1.447715,1,2,1L5,1C5,0.447715,5.44772,0,6,0ZM5,4L5,3L3,3L3,6L15,6L15,3L13,3L13,4C13,4.55228,12.5523,5,12,5C11.4477,5,11,4.55228,11,4L11,3L7,3L7,4C7,4.55228,6.55228,5,6,5C5.44772,5,5,4.55228,5,4ZM15,8L3,8L3,15L15,15L15,8ZM4,11L4,9L6,9L6,11L4,11ZM8,9L10,9L10,11L8,11L8,9ZM12,11L12,9L14,9L14,11L12,11Z" fill-rule="evenodd" fill="#7982A6" fill-opacity="1"/></g></g></svg>