<svg xmlns="http://www.w3.org/2000/svg" xmlns:xlink="http://www.w3.org/1999/xlink" fill="none" version="1.1" width="18" height="18" viewBox="0 0 18 18"><g><g transform="matrix(0.7071067690849304,0.7071067690849304,-0.7071067690849304,0.7071067690849304,6.535472933028359,-7.677685145943542)"><path d="M12.5355224609375 5.0501707792282104C12.5355224609375 4.49788609523489 12.98323765773489 4.0501708984375 13.53552234172821 4.0501708984375L13.53552234172821 4.0501708984375C14.087807025721531 4.0501708984375 14.535522222518921 4.49788609523489 14.535522222518921 5.0501707792282104L14.535522222518921 15.05017101764679C14.535522222518921 15.60245570164011 14.087807025721531 16.0501708984375 13.53552234172821 16.0501708984375L13.53552234172821 16.0501708984375C12.98323765773489 16.0501708984375 12.5355224609375 15.60245570164011 12.5355224609375 15.05017101764679Z" fill="#222E61" fill-opacity="1"/></g><g transform="matrix(-0.7071067094802856,0.7071067094802856,-0.7071067094802856,-0.7071067094802856,32.67771257761342,11.535248359039542)"><path d="M13.9498291015625 13.535400390625C13.9498291015625 12.983115640794207 14.397544351731707 12.535400390625 14.9498291015625 12.535400390625L14.9498291015625 12.535400390625C15.502113851393293 12.535400390625 15.9498291015625 12.983115640794207 15.9498291015625 13.535400390625L15.9498291015625 23.535400390625C15.9498291015625 24.087685140455793 15.502113851393293 24.535400390625 14.9498291015625 24.535400390625L14.9498291015625 24.535400390625C14.397544351731707 24.535400390625 13.9498291015625 24.087685140455793 13.9498291015625 23.535400390625Z" fill="#222E61" fill-opacity="1"/></g></g></svg>