<svg xmlns="http://www.w3.org/2000/svg" xmlns:xlink="http://www.w3.org/1999/xlink" fill="none" version="1.1" width="18" height="18" viewBox="0 0 18 18"><g><g><path d="M0 0C0 0 0 0 0 0L18 0C18 0 18 0 18 0L18 18C18 18 18 18 18 18L0 18C0 18 0 18 0 18Z" fill="#FFFFFF" fill-opacity="0"/></g><g style="opacity:0.6000000238418579;"><path d="M14.4,0L3.6,0C3.03995,0,2.753589,0.00113373,2.540442,0.111618C2.356978,0.206717,2.206717,0.356978,2.111618,0.540442C2.00113373,0.753589,2,1.03995,2,1.6L2,16.4C2,16.9601,2.00113375,17.2464,2.111618,17.4596C2.206717,17.643,2.356978,17.7933,2.540442,17.8884C2.753589,17.9989,3.03995,18,3.6,18L14.4,18C14.9601,18,15.2464,17.9989,15.4596,17.8884C15.643,17.7933,15.7933,17.643,15.8884,17.4596C15.9989,17.2464,16,16.9601,16,16.4L16,1.6C16,1.03995,15.9989,0.753589,15.8884,0.540442C15.7933,0.356978,15.643,0.206717,15.4596,0.111618C15.2464,0.00113375,14.9601,0,14.4,0ZM14,2L4,2L4,5L14,5L14,2ZM4,7L6,7L6,9L4,9L4,7ZM8,7L10,7L10,9L8,9L8,7ZM12,7L14,7L14,9L12,9L12,7ZM6,11L4,11L4,13L6,13L6,11ZM10,11L8,11L8,13L10,13L10,11ZM14,11L12,11L12,13L14,13L14,11Z" fill-rule="evenodd" fill="#325BF2" fill-opacity="1"/></g></g></svg>