<?xml version="1.0" encoding="UTF-8"?>
<svg width="18px" height="18px" viewBox="0 0 18 18" version="1.1" xmlns="http://www.w3.org/2000/svg" xmlns:xlink="http://www.w3.org/1999/xlink">
    <title>icon/Other/ic_devices</title>
    <g id="icon/Other/ic_devices" stroke="none" stroke-width="1" fill="none" fill-rule="evenodd">
        <path d="M2,7.5 C3.45833333,9.83333333 5.79166667,11 9,11 C12.2083333,11 14.5416667,9.83333333 16,7.5 L15.5625,13 C14.5208333,14.6666667 12.9166667,16.3333333 10.75,18 L7.25,18 C5.08333333,16.3333333 3.47916667,14.6666667 2.4375,13 L2,7.5 Z" id="矩形" fill="#325BF2" opacity="0.6"></path>
        <path d="M7.75,13 L10.25,13 C10.6642136,13 11,13.3357864 11,13.75 C11,14.1642136 10.6642136,14.5 10.25,14.5 L7.75,14.5 C7.33578644,14.5 7,14.1642136 7,13.75 C7,13.3357864 7.33578644,13 7.75,13 Z" id="矩形" fill="#FFFFFF"></path>
        <rect id="矩形" fill-opacity="0" fill="#FFFFFF" x="0" y="0" width="18" height="18"></rect>
        <ellipse id="椭圆形" fill="#325BF2" opacity="0.6" cx="9" cy="5" rx="7" ry="5"></ellipse>
    </g>
</svg>