<svg xmlns="http://www.w3.org/2000/svg" xmlns:xlink="http://www.w3.org/1999/xlink" fill="none" version="1.1" width="18" height="18" viewBox="0 0 18 18"><g><g><path d="M0 0C0 0 0 0 0 0L18 0C18 0 18 0 18 0L18 18C18 18 18 18 18 18L0 18C0 18 0 18 0 18Z" fill="#FFFFFF" fill-opacity="0"/></g><g><path d="M5,3L4,3L2.6,3Q1.512003,3,1.080244,3.223802Q0.5161830000000001,3.516183,0.22380199999999995,4.0802439Q0,4.512003,0,5.6L0,14.4Q0,15.488,0.22380199999999995,15.9198Q0.5161830000000001,16.483800000000002,1.0802495,16.7762Q1.512008,17,2.6,17L15.4,17Q16.488,17,16.919800000000002,16.7762Q17.4838,16.483800000000002,17.7762,15.9198Q18,15.488,18,14.4L18,5.6Q18,4.5120059999999995,17.7762,4.0802472Q17.4838,3.516184,16.919800000000002,3.223803Q16.488,3,15.4,3L14,3L13,3L13,5L14,5L15.4,5Q15.8464,5,15.9764,5.01089L15.9875,5.00535Q15.9883,5.01398,15.9891,5.02361Q16,5.15356,16,5.6L16,14.4Q16,14.8464,15.9891,14.9764L15.9946,14.9875Q15.9861,14.9883,15.9764,14.9891Q15.8464,15,15.4,15L2.6,15Q2.1535599999999997,15,2.0236099999999997,14.9891L2.0125200000000003,14.9946Q2.0117000000000003,14.9861,2.01089,14.9764Q2,14.8464,2,14.4L2,5.6Q2,5.15357,2.01089,5.02361L2.00536,5.01252Q2.01394,5.0117,2.0236099999999997,5.01089Q2.15357,5,2.6,5L4,5L5,5L5,3Z" fill-rule="evenodd" fill="#7982A6" fill-opacity="1"/></g><g><path d="M7.999995,0L8,1L8,12L7.999995,13L10,13L10,12L10,1L10,0L7.999995,0Z" fill-rule="evenodd" fill="#7982A6" fill-opacity="1"/></g><g><path d="M5.6,9.2L9,11.75L12.4,9.2L12.40035,9.199741L13.2,8.59999L13.8,9.399997L14.40001,10.200001L13.6,10.8L9.6,13.8Q9.53551,13.84837,9.46411,13.88578Q9.3927,13.92319,9.316230000000001,13.94868Q9.23975,13.97417,9.16018,13.98709Q9.08061,14,9,14Q8.91939,14,8.83982,13.98709Q8.76025,13.97417,8.683769999999999,13.94868Q8.6073,13.92319,8.53589,13.88578Q8.46449,13.84837,8.4,13.8L4.4,10.8L3.59999,10.200001L4.799999,8.59999L5.599829,9.199872L5.6,9.2L5.6,9.2Z" fill-rule="evenodd" fill="#7982A6" fill-opacity="1"/></g></g></svg>