<svg xmlns="http://www.w3.org/2000/svg" xmlns:xlink="http://www.w3.org/1999/xlink" fill="none" version="1.1" width="18" height="18" viewBox="0 0 18 18"><g><g><path d="M0 0C0 0 0 0 0 0L18 0C18 0 18 0 18 0L18 18C18 18 18 18 18 18L0 18C0 18 0 18 0 18Z" fill="#FFFFFF" fill-opacity="0"/></g><g><path d="M10,0C10.5523,0,11,0.447715,11,1C11,1.51284,10.614,1.93551,10.1166,1.99327L10,2L3,2C2.48716,2,2.06449,2.38604,2.00673,2.88338L2,3L2,15C2,15.5128,2.38604,15.9355,2.88338,15.9933L3,16L15,16C15.5128,16,15.9355,15.614,15.9933,15.1166L16,15L16,10C16,9.44771,16.4477,9,17,9C17.5128,9,17.9355,9.38604,17.9933,9.88338L18,10L18,15C18,16.5977,16.7511,17.9037,15.1763,17.9949L15,18L3,18C1.40232,18,0.0963391,16.7511,0.00509269,15.1763L0,15L0,3C0,1.40232,1.24892,0.0963391,2.82373,0.00509269L3,0L10,0ZM16.3751,1.67215L15.5091,1.17215C14.5525,0.619867,13.3293,0.947617,12.777,1.9042L8.35812,9.55799C8.284,9.68638,8.23934,9.82964,8.2274,9.97741L7.94535,13.4659C7.8774,14.3064,8.81633,14.8485,9.51027,14.3694L12.3904,12.3809C12.5124,12.2967,12.6141,12.1864,12.6882,12.058L17.1072,4.4042C17.6595,3.44762,17.3317,2.22444,16.3751,1.67215ZM14.5091,2.90421L15.3751,3.40421L14.8684,4.28162L13.9489,3.87423L14.5091,2.90421ZM12.8869,5.71311L10.203,10.3607L10.1094,11.5248L11.068,10.8624L13.8065,6.12051L12.8869,5.71311Z" fill-rule="evenodd" fill="#7982A6" fill-opacity="1"/></g></g></svg>