<?xml version="1.0" encoding="UTF-8"?>
<svg width="18px" height="18px" viewBox="0 0 18 18" version="1.1" xmlns="http://www.w3.org/2000/svg" xmlns:xlink="http://www.w3.org/1999/xlink">
    <title>icon/Other/ic_email</title>
    <g id="icon/Other/ic_email" stroke="none" stroke-width="1" fill="none" fill-rule="evenodd">
        <path d="M15,2 C16.1045695,2 17,2.8954305 17,4 L17,14 C17,15.1045695 16.1045695,16 15,16 L3,16 C1.8954305,16 1,15.1045695 1,14 L1,4 C1,2.8954305 1.8954305,2 3,2 L15,2 Z M15,4 L3,4 L3,14 L15,14 L15,4 Z" id="矩形" fill="#7982A6" fill-rule="nonzero"></path>
        <path d="M15.3492086,3.2407434 C15.7685345,2.88132125 16.3998345,2.92988278 16.7592566,3.34920863 C17.1186788,3.76853447 17.0701172,4.39983445 16.6507914,4.7592566 L9.65079137,10.7592566 C9.27630164,11.0802478 8.72369836,11.0802478 8.34920863,10.7592566 L1.34920863,4.7592566 C0.929882784,4.39983445 0.881321247,3.76853447 1.2407434,3.34920863 C1.60016555,2.92988278 2.23146553,2.88132125 2.65079137,3.2407434 L9,8.683 L15.3492086,3.2407434 Z" id="直线-17" fill="#7982A6" fill-rule="nonzero"></path>
    </g>
</svg>