<?xml version="1.0" encoding="UTF-8"?>
<svg width="18px" height="18px" viewBox="0 0 18 18" version="1.1" xmlns="http://www.w3.org/2000/svg" xmlns:xlink="http://www.w3.org/1999/xlink">
    <title>icon/Other/ic_firmware</title>
    <g id="icon/Other/ic_firmware" stroke="none" stroke-width="1" fill="none" fill-rule="evenodd">
        <rect id="矩形" fill-opacity="0" fill="#FFFFFF" x="0" y="0" width="18" height="18"></rect>
        <path d="M5.5,0 L5.5,2 L6.5,2 L6.5,0 L7.5,0 L7.5,2 L8.499,2 L8.5,0 L9.5,0 L9.499,2 L10.5,2 L10.5,0 L11.5,0 L11.5,2 L12.5,2 L12.5,0 L13.5,0 L13.5006962,2.0415961 C14.756717,2.25262128 15.7479555,3.2441347 15.9585702,4.50029469 L18,4.5 L18,5.5 L16,5.5 L16,6.5 L18,6.5 L18,7.5 L16,7.5 L16,8.5 L18,8.5 L18,9.5 L16,9.5 L16,10.5 L18,10.5 L18,11.5 L16,11.5 L16,12.5 L18,12.5 L18,13.5 L15.9584039,13.5006962 C15.7474342,14.7563867 14.7563867,15.7474342 13.5006962,15.9584039 L13.5,18 L12.5,18 L12.5,16 L11.5,16 L11.5,18 L10.5,18 L10.5,16 L9.499,16 L9.5,18 L8.5,18 L8.499,16 L7.5,16 L7.5,18 L6.5,18 L6.5,16 L5.5,16 L5.5,18 L4.5,18 L4.50029469,15.9585702 C3.2441347,15.7479555 2.25262128,14.756717 2.0415961,13.5006962 L0,13.5 L0,12.5 L2,12.5 L2,11.5 L0,11.5 L0,10.5 L2,10.5 L2,9.5 L0,9.5 L0,8.5 L2,8.5 L2,7.5 L0,7.5 L0,6.5 L2,6.5 L2,5.5 L0,5.5 L0,4.5 L2.0414298,4.50029469 C2.25209986,3.2438044 3.2438044,2.25209986 4.50029469,2.0414298 L4.5,0 L5.5,0 Z M12,5 L6,5 C5.44771525,5 5,5.44771525 5,6 L5,12 C5,12.5522847 5.44771525,13 6,13 L12,13 C12.5522847,13 13,12.5522847 13,12 L13,6 C13,5.44771525 12.5522847,5 12,5 Z" id="形状结合" fill="#325BF2" opacity="0.6"></path>
    </g>
</svg>