<svg xmlns="http://www.w3.org/2000/svg" xmlns:xlink="http://www.w3.org/1999/xlink" fill="none" version="1.1" width="18" height="18" viewBox="0 0 18 18"><g><g><path d="M0 0C0 0 0 0 0 0L18 0C18 0 18 0 18 0L18 18C18 18 18 18 18 18L0 18C0 18 0 18 0 18Z" fill="#FFFFFF" fill-opacity="0"/></g><g><path d="M4.6,18L13.4,18Q14.488,18,14.9198,17.7762Q15.4838,17.4838,15.7762,16.919800000000002Q16,16.488,16,15.4L16,6Q16,5.80109,15.9239,5.61732Q15.8478,5.43355,15.7071,5.29289L10.70711,0.29289299999999996Q10.56645,0.15224099999999996,10.38268,0.07611999999999997Q10.19891,0,10,0L4.6,0Q3.512003,0,3.080244,0.22380199999999995Q2.516183,0.5161830000000001,2.223802,1.0802439Q2,1.512003,2,2.6L2,15.4Q2,16.488,2.223802,16.919800000000002Q2.516184,17.4838,3.0802449,17.7762Q3.512006,18,4.6,18ZM13.9764,15.9891Q13.8464,16,13.4,16L4.6,16Q4.15356,16,4.02361,15.9891L4.01252,15.9946Q4.0117,15.9861,4.01089,15.9764Q4,15.8464,4,15.4L4,2.6Q4,2.15357,4.01089,2.0236099999999997L4.00536,2.0125200000000003Q4.01394,2.0117000000000003,4.02361,2.01089Q4.15357,2,4.6,2L9.58579,2L14,6.41421L14,15.4Q14,15.8464,13.9891,15.9764L13.9946,15.9875Q13.9861,15.9883,13.9764,15.9891Z" fill-rule="evenodd" fill="#666F99" fill-opacity="1"/></g><g transform="matrix(0,1,-1,0,16,-14)"><path d="M22,7L22,1Q22,0.9015086,21.98078,0.80491Q21.961570000000002,0.708311,21.92388,0.617317Q21.88619,0.526322,21.83147,0.44443Q21.77675,0.362537,21.70711,0.29289299999999996Q21.63746,0.22324900000000003,21.55557,0.16852999999999996Q21.47368,0.11381200000000002,21.38268,0.076121Q21.29169,0.038429999999999964,21.19509,0.019214999999999982Q21.098489999999998,0,21,0Q20.901510000000002,0,20.80491,0.019214999999999982Q20.70831,0.038429999999999964,20.61732,0.076121Q20.52632,0.11381200000000002,20.44443,0.16852999999999996Q20.36254,0.22324900000000003,20.29289,0.29289299999999996Q20.22325,0.362537,20.16853,0.44443Q20.11381,0.526322,20.07612,0.617317Q20.038429999999998,0.708311,20.01921,0.80491Q20,0.9015086,20,1L20,6L15,6Q14.9015086,6,14.80491,6.01921Q14.708311,6.03843,14.617317,6.07612Q14.526322,6.11381,14.44443,6.16853Q14.362537,6.22325,14.292893,6.29289Q14.223249,6.36254,14.16853,6.44443Q14.113812,6.52632,14.076121,6.61732Q14.03843,6.70831,14.019214999999999,6.80491Q14,6.90151,14,7Q14,7.09849,14.019214999999999,7.19509Q14.03843,7.29169,14.076121,7.38268Q14.113812,7.47368,14.16853,7.55557Q14.223249,7.63746,14.292893,7.70711Q14.362537,7.77675,14.44443,7.83147Q14.526322,7.88619,14.617317,7.92388Q14.708311,7.96157,14.80491,7.98078Q14.9015086,8,15,8L21,8Q21.098489999999998,8,21.19509,7.98078Q21.29169,7.96157,21.38268,7.92388Q21.47368,7.88619,21.55557,7.83147Q21.63746,7.77675,21.70711,7.70711Q21.77675,7.63746,21.83147,7.55557Q21.88619,7.47368,21.92388,7.38268Q21.961570000000002,7.29169,21.98078,7.19509Q22,7.09849,22,7Z" fill-rule="evenodd" fill="#666F99" fill-opacity="1"/></g></g></svg>