<?xml version="1.0" encoding="UTF-8"?>
<svg width="18px" height="18px" viewBox="0 0 18 18" version="1.1" xmlns="http://www.w3.org/2000/svg" xmlns:xlink="http://www.w3.org/1999/xlink">
    <title>icon/Other/ic_finance</title>
    <g id="icon/Other/ic_finance" stroke="none" stroke-width="1" fill="none" fill-rule="evenodd">
        <rect id="矩形" fill-opacity="0" fill="#FFFFFF" x="0" y="0" width="18" height="18"></rect>
        <path d="M15,0 C15.5522847,-1.01453063e-16 16,0.44771525 16,1 L16,17 C16,17.5522847 15.5522847,18 15,18 L3,18 C2.44771525,18 2,17.5522847 2,17 L2,1 C2,0.44771525 2.44771525,6.76353751e-17 3,0 L15,0 Z M6,11 L4,11 L4,13 L6,13 L6,11 Z M10,11 L8,11 L8,13 L10,13 L10,11 Z M14,11 L12,11 L12,13 L14,13 L14,11 Z M6,7 L4,7 L4,9 L6,9 L6,7 Z M10,7 L8,7 L8,9 L10,9 L10,7 Z M14,7 L12,7 L12,9 L14,9 L14,7 Z M14,2 L4,2 L4,5 L14,5 L14,2 Z" id="形状结合" fill="#325BF2" opacity="0.6"></path>
    </g>
</svg>