<?xml version="1.0" encoding="UTF-8"?>
<svg width="24px" height="24px" viewBox="0 0 24 24" version="1.1" xmlns="http://www.w3.org/2000/svg" xmlns:xlink="http://www.w3.org/1999/xlink">
    <title>icon/ic_hide</title>
    <g id="icon/ic_hide" stroke="none" stroke-width="1" fill="none" fill-rule="evenodd">
        <rect id="矩形" fill-opacity="0" fill="#D8D8D8" x="0" y="0" width="24" height="24"></rect>
        <path d="M21.711485,8.29729874 C22.0995762,8.69024107 22.0956436,9.32339384 21.7027013,9.71148502 C20.7921279,10.6108168 19.8447901,11.3701213 18.8620187,11.9880552 L20.7071884,14.7404892 C21.0148657,15.1991319 20.892484,15.820357 20.4338412,16.1280342 C19.9751985,16.4357115 19.3539734,16.3133298 19.0462962,15.854687 L17.1695539,13.0570989 C17.1415071,13.0152907 17.1170339,12.9721315 17.0960632,12.9279819 C15.7880805,13.5065139 14.421477,13.8518216 13.0009389,13.9616324 L13,17 C13,17.5522847 12.5522847,18 12,18 C11.4477153,18 11,17.5522847 11,17 L11.0000592,13.9617095 C9.57916315,13.8519833 8.21222629,13.5066493 6.90203729,12.9285223 L6.88982861,12.9565034 L6.83044613,13.0570989 L4.95370383,15.854687 C4.64602658,16.3133298 4.0248015,16.4357115 3.56615876,16.1280342 C3.10751603,15.820357 2.98513433,15.1991319 3.29281158,14.7404892 L5.13798134,11.9880552 C4.15520994,11.3701213 3.20787215,10.6108168 2.29729874,9.71148502 C1.90435641,9.32339384 1.90042379,8.69024107 2.28851498,8.29729874 C2.67660616,7.90435641 3.30975893,7.90042379 3.70270126,8.28851498 C6.2223034,10.7770109 8.97402884,11.9999999 11.9999999,11.9999999 C15.0259712,11.9999999 17.7776966,10.7770109 20.2972987,8.28851498 C20.6902411,7.90042379 21.3233938,7.90435641 21.711485,8.29729874 Z" id="形状结合" fill="#4D4D4D" fill-rule="nonzero"></path>
    </g>
</svg>