<svg xmlns="http://www.w3.org/2000/svg" xmlns:xlink="http://www.w3.org/1999/xlink" fill="none" version="1.1" width="16" height="16" viewBox="0 0 16 16"><g><g><path d="M0 0C0 0 0 0 0 0L16 0C16 0 16 0 16 0L16 16C16 16 16 16 16 16L0 16C0 16 0 16 0 16Z" fill="#FFFFFF" fill-opacity="0"/></g><g><path d="M15.111085498046876,8.000026015625Q15.111085498046876,8.174596015625,15.102585498046874,8.348956015625Q15.093985498046875,8.523306015625,15.076885498046876,8.697036015624999Q15.059785498046875,8.870766015625,15.034185498046876,9.043446015625Q15.008485498046875,9.216126015625,14.974485498046874,9.387336015625Q14.940385498046876,9.558546015625,14.897985498046875,9.727886015625Q14.855585498046874,9.897226015625,14.804885498046875,10.064276015625Q14.754185498046875,10.231326015625,14.695385498046875,10.395686015625Q14.636585498046875,10.560046015625,14.569785498046874,10.721326015625Q14.502985498046876,10.882606015625,14.428385498046875,11.040416015625Q14.353685498046875,11.198216015625,14.271385498046875,11.352216015625Q14.189185498046875,11.506116015625,14.099385498046875,11.655916015625Q14.009685498046874,11.805616015625,13.912685498046875,11.950716015625Q13.815685498046875,12.095916015625,13.711685498046876,12.236116015625Q13.607685498046875,12.376316015625,13.496985498046875,12.511316015625Q13.386185498046874,12.646216015625,13.268985498046876,12.775516015625Q13.151785498046875,12.904916015625,13.028285498046875,13.028316015625Q12.904885498046875,13.151816015625,12.775485498046875,13.269016015625Q12.646185498046876,13.386216015625,12.511285498046876,13.497016015625Q12.376285498046874,13.607716015625,12.236085498046876,13.711716015625Q12.095885498046876,13.815716015625,11.950685498046875,13.912716015625Q11.805585498046876,14.009716015625,11.655885498046874,14.099416015625Q11.506085498046875,14.189216015625,11.352185498046875,14.271516015625Q11.198185498046875,14.353716015625,11.040385498046875,14.428416015625Q10.882575498046876,14.503016015625,10.721295498046874,14.569816015625Q10.560015498046875,14.636616015625,10.395655498046874,14.695416015625Q10.231295498046874,14.754216015625,10.064245498046875,14.804916015625Q9.897195498046875,14.855616015625,9.727855498046875,14.898016015625Q9.558515498046875,14.940416015625,9.387305498046874,14.974516015625Q9.216095498046874,15.008516015625,9.043415498046874,15.034216015625Q8.870735498046875,15.059816015625,8.697005498046874,15.076916015625Q8.523275498046875,15.094016015625,8.348925498046874,15.102616015625Q8.174565498046874,15.111116015625,7.999995498046875,15.111116015625Q7.825425498046875,15.111116015625,7.651075498046875,15.102616015625Q7.476715498046875,15.094016015625,7.302985498046875,15.076916015625Q7.129255498046875,15.059816015625,6.956575498046875,15.034216015625Q6.783905498046875,15.008516015625,6.612685498046875,14.974516015625Q6.441475498046875,14.940416015625,6.272135498046875,14.898016015625Q6.102805498046875,14.855616015625,5.935745498046875,14.804916015625Q5.768695498046875,14.754216015625,5.604335498046875,14.695416015625Q5.439975498046875,14.636616015625,5.278695498046875,14.569816015625Q5.117415498046875,14.503016015625,4.959605498046875,14.428416015625Q4.801795498046875,14.353716015625,4.647845498046875,14.271416015625Q4.493885498046875,14.189216015625,4.3441554980468755,14.099416015625Q4.194425498046876,14.009716015625,4.049275498046875,13.912716015625Q3.904125498046875,13.815716015625,3.763915498046875,13.711716015625Q3.623695498046875,13.607716015625,3.488755498046875,13.497016015625Q3.353815498046875,13.386216015625,3.224465498046875,13.269016015625Q3.095115498046875,13.151816015625,2.971685498046875,13.028316015625Q2.848245498046875,12.904916015625,2.731015498046875,12.775516015625Q2.6137754980468753,12.646216015625,2.503035498046875,12.511316015625Q2.392285498046875,12.376316015625,2.288295498046875,12.236116015625Q2.184305498046875,12.095916015625,2.0873254980468747,11.950716015625Q1.990335498046875,11.805616015625,1.900595498046875,11.655916015625Q1.810847498046875,11.506116015625,1.728556498046875,11.352216015625Q1.646265498046875,11.198216015625,1.5716284980468749,11.040416015625Q1.4969904980468751,10.882606015625,1.430186498046875,10.721326015625Q1.363382498046875,10.560046015625,1.304572498046875,10.395686015625Q1.245761498046875,10.231326015625,1.1950874980468749,10.064276015625Q1.144413498046875,9.897226015625,1.101996498046875,9.727886015625Q1.059580498046875,9.558546015625,1.025523498046875,9.387336015625Q0.991466498046875,9.216126015625,0.965852498046875,9.043446015625Q0.940238098046875,8.870766015625,0.923127398046875,8.697036015624999Q0.906016798046875,8.523306015625,0.897451138046875,8.348956015625Q0.888885498046875,8.174596015625,0.888885498046875,8.000026015625Q0.888885498046875,7.825456015625,0.897451138046875,7.651106015625Q0.906016798046875,7.476746015625,0.923127398046875,7.303016015625Q0.940238098046875,7.129286015625,0.965852498046875,6.956606015625Q0.991466498046875,6.783936015625,1.025523498046875,6.612716015625Q1.059580498046875,6.441506015625,1.101996498046875,6.272166015625Q1.144413498046875,6.102836015625,1.1950874980468749,5.935776015625Q1.245761498046875,5.768726015625,1.304572498046875,5.604366015625Q1.363382498046875,5.440006015625,1.430186498046875,5.278726015625Q1.4969904980468751,5.117446015625,1.5716284980468749,4.959636015625Q1.646265498046875,4.801826015625,1.728556498046875,4.647876015625Q1.810847498046875,4.493916015625,1.900595498046875,4.3441860156250005Q1.990335498046875,4.194456015625001,2.0873254980468747,4.049306015625Q2.184305498046875,3.904156015625,2.288295498046875,3.763946015625Q2.392285498046875,3.623726015625,2.503035498046875,3.488786015625Q2.6137754980468753,3.353846015625,2.731015498046875,3.224496015625Q2.848245498046875,3.095146015625,2.971685498046875,2.971716015625Q3.095115498046875,2.848276015625,3.224465498046875,2.731046015625Q3.353815498046875,2.6138060156250003,3.488755498046875,2.503066015625Q3.623695498046875,2.392316015625,3.763915498046875,2.288326015625Q3.904125498046875,2.184336015625,4.049275498046875,2.0873560156249997Q4.194425498046876,1.990366015625,4.3441554980468755,1.900626015625Q4.493885498046875,1.810878015625,4.647845498046875,1.728587015625Q4.801795498046875,1.646296015625,4.959605498046875,1.5716590156249999Q5.117415498046875,1.4970210156250001,5.278695498046875,1.430217015625Q5.439975498046875,1.363413015625,5.604335498046875,1.304603015625Q5.768695498046875,1.245792015625,5.935745498046875,1.1951180156249999Q6.102795498046875,1.144444015625,6.272135498046875,1.102027015625Q6.441475498046875,1.059611015625,6.612685498046875,1.025554015625Q6.783905498046875,0.991497015625,6.956575498046875,0.965883015625Q7.129255498046875,0.940268615625,7.302985498046875,0.923157915625Q7.476715498046875,0.906047315625,7.651075498046875,0.897481655625Q7.825425498046875,0.888916015625,7.999995498046875,0.888916015625Q8.174565498046874,0.888916015625,8.348925498046874,0.897481655625Q8.523275498046875,0.906047315625,8.697005498046874,0.923157915625Q8.870735498046875,0.940268615625,9.043415498046874,0.965883015625Q9.216095498046874,0.991497015625,9.387305498046874,1.025554015625Q9.558515498046875,1.059611015625,9.727855498046875,1.102027015625Q9.897195498046875,1.144444015625,10.064245498046875,1.1951180156249999Q10.231295498046874,1.245792015625,10.395655498046874,1.304603015625Q10.560015498046875,1.363413015625,10.721295498046874,1.430217015625Q10.882575498046876,1.4970210156250001,11.040385498046875,1.5716590156249999Q11.198185498046875,1.646296015625,11.352185498046875,1.728587015625Q11.506085498046875,1.810878015625,11.655885498046874,1.900626015625Q11.805585498046876,1.990366015625,11.950685498046875,2.0873560156249997Q12.095885498046876,2.184336015625,12.236085498046876,2.288326015625Q12.376285498046874,2.392316015625,12.511285498046876,2.503066015625Q12.646185498046876,2.6138060156250003,12.775485498046875,2.731046015625Q12.904885498046875,2.848276015625,13.028285498046875,2.971716015625Q13.151785498046875,3.095146015625,13.268985498046876,3.224496015625Q13.386185498046874,3.353846015625,13.496985498046875,3.488786015625Q13.607685498046875,3.623726015625,13.711685498046876,3.763946015625Q13.815685498046875,3.904156015625,13.912685498046875,4.049306015625Q14.009685498046874,4.194456015625001,14.099385498046875,4.3441860156250005Q14.189185498046875,4.493916015625,14.271485498046875,4.647876015625Q14.353685498046875,4.801826015625,14.428385498046875,4.959636015625Q14.502985498046876,5.117446015625,14.569785498046874,5.278726015625Q14.636585498046875,5.440006015625,14.695385498046875,5.604366015625Q14.754185498046875,5.768726015625,14.804885498046875,5.935776015625Q14.855585498046874,6.102826015625,14.897985498046875,6.272166015625Q14.940385498046876,6.441506015625,14.974485498046874,6.612716015625Q15.008485498046875,6.783936015625,15.034185498046876,6.956606015625Q15.059785498046875,7.129286015625,15.076885498046876,7.303016015625Q15.093985498046875,7.476746015625,15.102585498046874,7.651106015625Q15.111085498046876,7.825456015625,15.111085498046876,8.000026015625ZM11.333285498046875,6.222246015625C11.333285498046875,4.381296015625,9.840935498046875,2.888916015625,7.999985498046875,2.888916015625C6.159035498046875,2.888916015625,4.666655498046875,4.381296015625,4.666655498046875,6.222246015625C4.666655498046875,6.590436015625,4.965135498046875,6.888916015625,5.333325498046875,6.888916015625C5.701515498046875,6.888916015625,5.999985498046875,6.590436015625,5.999985498046875,6.222246015625C5.999985498046875,5.117676015625,6.895415498046875,4.222246015625,7.999985498046875,4.222246015625C9.104555498046874,4.222246015625,9.999985498046875,5.117676015625,9.999985498046875,6.222246015625C9.999985498046875,6.620446015625,9.884095498046875,6.999696015625,9.669545498046874,7.323956015625C9.488975498046875,7.545186015625,9.191915498046875,7.767616015625,8.804905498046875,7.942486015625L8.650185498046875,8.018896015625C7.843315498046875,8.452526015625,7.333325498046875,9.297036015625,7.333325498046875,10.222246015625C7.333325498046875,10.590436015625,7.631795498046875,10.888916015625,7.999985498046875,10.888916015625C8.368175498046874,10.888916015625,8.666655498046875,10.590436015625,8.666655498046875,10.222246015625L8.673235498046875,10.098236015625C8.716775498046875,9.689286015625,8.973575498046875,9.329406015625,9.353925498046875,9.157546015625C9.926085498046875,8.899016015625,10.393095498046875,8.549326015624999,10.746005498046875,8.108416015625C11.139385498046876,7.518866015625,11.333285498046875,6.884126015625,11.333285498046875,6.222246015625ZM8.888895498046875,12.444416015625Q8.888895498046875,12.532016015625,8.871815498046875,12.617816015625Q8.854735498046875,12.703716015625,8.821225498046875,12.784616015625Q8.787725498046875,12.865516015625,8.739085498046876,12.938316015625Q8.690445498046875,13.011016015625,8.628545498046876,13.073016015625Q8.566635498046875,13.134916015625,8.493845498046875,13.183516015625Q8.421045498046876,13.232116015625,8.340165498046876,13.265616015625Q8.259285498046875,13.299116015625,8.173415498046875,13.316216015625Q8.087555498046875,13.333316015625,8.000005498046875,13.333316015625Q7.912455498046875,13.333316015625,7.826585498046875,13.316216015625Q7.740725498046875,13.299116015625,7.659835498046875,13.265616015625Q7.578955498046875,13.232116015625,7.506165498046875,13.183516015625Q7.433365498046875,13.134916015625,7.371465498046875,13.073016015625Q7.309555498046875,13.011016015625,7.260915498046875,12.938316015625Q7.212275498046875,12.865516015625,7.178775498046875,12.784616015625Q7.145275498046875,12.703716015625,7.128195498046875,12.617816015625Q7.111115498046875,12.532016015625,7.111115498046875,12.444416015625Q7.111115498046875,12.356916015625,7.128195498046875,12.271016015625Q7.145275498046875,12.185116015625,7.178775498046875,12.104316015625Q7.212275498046875,12.023416015625,7.260915498046875,11.950616015625Q7.309555498046875,11.877816015625,7.371465498046875,11.815916015625Q7.433365498046875,11.754016015625,7.506165498046875,11.705316015625Q7.578955498046875,11.656716015625,7.659835498046875,11.623216015625Q7.740725498046875,11.589716015625,7.826585498046875,11.572616015625Q7.912455498046875,11.555516015625,8.000005498046875,11.555516015625Q8.087555498046875,11.555516015625,8.173415498046875,11.572616015625Q8.259285498046875,11.589716015625,8.340165498046876,11.623216015625Q8.421045498046876,11.656716015625,8.493845498046875,11.705316015625Q8.566635498046875,11.754016015625,8.628545498046876,11.815916015625Q8.690445498046875,11.877816015625,8.739085498046876,11.950616015625Q8.787725498046875,12.023416015625,8.821225498046875,12.104316015625Q8.854735498046875,12.185116015625,8.871815498046875,12.271016015625Q8.888895498046875,12.356916015625,8.888895498046875,12.444416015625Z" fill-rule="evenodd" fill="#AAB1D1" fill-opacity="1"/></g></g></svg>