<?xml version="1.0" encoding="UTF-8"?>
<svg width="18px" height="18px" viewBox="0 0 18 18" version="1.1" xmlns="http://www.w3.org/2000/svg" xmlns:xlink="http://www.w3.org/1999/xlink">
    <title>icon/Other/ic_homes</title>
    <g id="icon/Other/ic_homes" stroke="none" stroke-width="1" fill="none" fill-rule="evenodd">
        <rect id="矩形" fill-opacity="0" fill="#FFFFFF" x="0" y="0" width="18" height="18"></rect>
        <path d="M10.3170092,1.15238306 L16.3170092,6.40238306 C16.7510391,6.78215924 17,7.33081129 17,7.90753645 L17,15 C17,16.1045695 16.1045695,17 15,17 L11,17 L11,12 C11,10.8954305 10.1045695,10 9,10 C7.8954305,10 7,10.8954305 7,12 L7,17 L3,17 C1.8954305,17 1,16.1045695 1,15 L1,7.90753645 C1,7.33081129 1.24896086,6.78215924 1.68299078,6.40238306 L7.68299078,1.15238306 C8.43704276,0.492587583 9.56295724,0.492587583 10.3170092,1.15238306 Z" id="形状结合" fill="#325BF2" opacity="0.6"></path>
    </g>
</svg>