<?xml version="1.0" encoding="UTF-8"?>
<svg width="18px" height="18px" viewBox="0 0 18 18" version="1.1" xmlns="http://www.w3.org/2000/svg" xmlns:xlink="http://www.w3.org/1999/xlink">
    <title>icon/Other/ic_invoice</title>
    <g id="icon/Other/ic_invoice" stroke="none" stroke-width="1" fill="none" fill-rule="evenodd">
        <rect id="矩形" fill-opacity="0" fill="#FFFFFF" x="0" y="0" width="18" height="18"></rect>
        <path d="M15,0 C15.5522847,-1.01453063e-16 16,0.44771525 16,1 L16,14.5857864 C16,14.8510029 15.8946432,15.1053568 15.7071068,15.2928932 L13.2928932,17.7071068 C13.1053568,17.8946432 12.8510029,18 12.5857864,18 L3,18 C2.44771525,18 2,17.5522847 2,17 L2,1 C2,0.44771525 2.44771525,6.76353751e-17 3,0 L15,0 Z M9.44200913,2 L8.60182648,2 L8.6004429,3.25804141 C8.01732876,3.29302527 7.48871842,3.41143215 7.01461187,3.61326206 C6.44109589,3.85741115 5.98873668,4.20735818 5.65753425,4.66310315 C5.32633181,5.11884812 5.16073059,5.66348839 5.16073059,6.29702398 L5.16073059,6.31204854 C5.16073059,6.85042859 5.27458143,7.31118174 5.50228311,7.694308 C5.72998478,8.07743427 6.06362253,8.39608013 6.50319635,8.65024559 C6.94277017,8.90441106 7.47914764,9.10536454 8.11232877,9.25310604 L8.601,9.366 L8.59982533,12.0694223 C8.3537211,12.044555 8.13642772,11.9959881 7.94794521,11.9237215 C7.66057839,11.8135414 7.43531202,11.6545314 7.27214612,11.4466917 C7.10898021,11.238852 7.0042618,10.9934508 6.95799087,10.7104883 L6.9543379,10.6992199 L5.00730594,10.702976 L5,10.7104883 C5.02191781,11.3665607 5.20700152,11.9224694 5.55525114,12.3782144 C5.90350076,12.8339594 6.37412481,13.1801502 6.96712329,13.4167871 C7.45852025,13.6128797 8.00301252,13.7277247 8.6006001,13.7613223 L8.60182648,15 L9.44200913,15 L9.44388345,13.7563265 C10.0298254,13.7166407 10.5631428,13.6003307 11.0438356,13.4073967 C11.6490107,13.1644997 12.1263318,12.8095444 12.4757991,12.3425311 C12.8252664,11.8755177 13,11.3077145 13,10.6391216 L13,10.6240971 C13,9.80025041 12.7430746,9.16295868 12.2292237,8.7122219 C11.7153729,8.26148512 10.9579909,7.92092844 9.95707763,7.69055186 L9.442,7.571 L9.44318627,4.9618473 C9.62097724,4.98900128 9.78618608,5.03340526 9.93881279,5.09505923 C10.2115677,5.20523933 10.4325723,5.36737937 10.6018265,5.58147934 C10.7710807,5.79557931 10.8739726,6.06038717 10.9105023,6.37590292 L10.9141553,6.38717134 L12.8538813,6.3834152 L12.8611872,6.37590292 C12.8368341,5.73986324 12.660274,5.18771068 12.3315068,4.71944525 C12.0027397,4.25117981 11.552207,3.88871232 10.9799087,3.63204276 C10.5278873,3.42931612 10.0158559,3.3066498 9.44381423,3.26404378 L9.44200913,2 Z M9.44331358,9.56423856 C9.97441135,9.70254053 10.3520587,9.85800334 10.5762557,10.030627 C10.8331811,10.2284504 10.9616438,10.5013965 10.9616438,10.8494655 L10.9616438,10.86449 C10.9616438,11.1174034 10.8898021,11.3358856 10.7461187,11.5199364 C10.6024353,11.7039873 10.3863014,11.8448425 10.0977169,11.9425022 C9.9108124,12.0057524 9.69300682,12.0485203 9.44430018,12.0708059 Z M8.60010555,4.95029854 L8.59974104,7.37002951 C8.32827152,7.29453024 8.09943851,7.21105994 7.91324201,7.11961861 C7.66849315,6.99942213 7.48828006,6.85919291 7.37260274,6.69893094 C7.25692542,6.53866898 7.19908676,6.35461813 7.19908676,6.14677839 L7.19908676,6.13175383 C7.19908676,5.90137725 7.26727549,5.69604161 7.40365297,5.51574689 C7.54003044,5.33545218 7.74216134,5.19271887 8.01004566,5.08754695 C8.18134071,5.02029618 8.37802734,4.97454671 8.60010555,4.95029854 Z" id="形状结合" fill="#325BF2" opacity="0.6"></path>
    </g>
</svg>