<?xml version="1.0" encoding="UTF-8"?>
<svg width="18px" height="18px" viewBox="0 0 18 18" version="1.1" xmlns="http://www.w3.org/2000/svg" xmlns:xlink="http://www.w3.org/1999/xlink">
    <title>icon/Other/ic_jump</title>
    <g id="icon/Other/ic_jump" stroke="none" stroke-width="1" fill="none" fill-rule="evenodd">
        <rect id="矩形" fill-opacity="0" fill="#FFFFFF" x="0" y="0" width="18" height="18"></rect>
        <path d="M8,0 C8.55228475,0 9,0.44771525 9,1 C9,1.51283584 8.61395981,1.93550716 8.11662113,1.99327227 L8,2 L3,2 C2.48716416,2 2.06449284,2.38604019 2.00672773,2.88337887 L2,3 L2,15 C2,15.5128358 2.38604019,15.9355072 2.88337887,15.9932723 L3,16 L15,16 C15.5128358,16 15.9355072,15.6139598 15.9932723,15.1166211 L16,15 L16,10 C16,9.44771525 16.4477153,9 17,9 C17.5128358,9 17.9355072,9.38604019 17.9932723,9.88337887 L18,10 L18,15 C18,16.5976809 16.75108,17.9036609 15.1762728,17.9949073 L15,18 L3,18 C1.40231912,18 0.0963391206,16.75108 0.00509269341,15.1762728 L0,15 L0,3 C0,1.40231912 1.24891996,0.0963391206 2.82372721,0.00509269341 L3,0 L8,0 Z M13.1277648,0.0080995804 L13.2425356,0.0298574999 L17.2425356,1.0298575 L17.2617528,1.03485469 C17.2894073,1.04236507 17.3167285,1.05105385 17.3436355,1.06089411 L17.2425356,1.0298575 C17.2891818,1.04151904 17.334173,1.05624152 17.3773641,1.0737483 C17.3966381,1.0817508 17.4162781,1.09047168 17.4356331,1.09982127 C17.4585597,1.11061944 17.4806366,1.12232453 17.5021346,1.13477488 C17.510159,1.13972437 17.5185179,1.14472564 17.5268075,1.14985153 C17.5506035,1.16427877 17.5733652,1.17973192 17.5953608,1.19602991 C17.6022151,1.2013412 17.609211,1.20665621 17.6161419,1.21206826 C17.6367163,1.22796497 17.6564347,1.24469549 17.6754246,1.26211638 C17.6859815,1.2718576 17.6966387,1.28204481 17.7070877,1.29249048 C17.7209466,1.30636993 17.7341392,1.32038873 17.7469011,1.33475615 C17.7596919,1.34905593 17.7723482,1.36414531 17.7845954,1.37966832 C17.7942369,1.39201649 17.8034949,1.40433571 17.8124604,1.41685372 C17.8250333,1.43427322 17.8373272,1.45267635 17.8490676,1.47159047 C17.8577611,1.48567325 17.8659631,1.49961934 17.8738243,1.51375313 C17.8806724,1.52602349 17.8876817,1.5392954 17.8944272,1.5527864 L17.901332,1.56685894 C17.9104617,1.58584295 17.9189982,1.60511677 17.9269257,1.62465019 L17.8944272,1.5527864 C17.9141734,1.59227879 17.9310612,1.63245312 17.9451689,1.67307415 C17.9510337,1.69003622 17.9565177,1.7073191 17.9615334,1.72475593 C17.9669783,1.74363967 17.9717032,1.76210819 17.9758809,1.78062529 C17.9785993,1.79262703 17.9812152,1.80528965 17.9835863,1.81801296 C17.9883355,1.84380553 17.9920091,1.86916244 17.994695,1.89452866 C17.9963261,1.90885153 17.9975636,1.92342352 17.998479,1.93804518 C17.9996538,1.95960593 18.0002657,1.98061215 18.0002163,2.00157266 C18.0003669,2.05214229 17.9963324,2.10386626 17.9880977,2.15561853 C17.9845179,2.17696774 17.9804172,2.19834578 17.9756311,2.21955559 C17.9743062,2.22600004 17.9728041,2.23233178 17.9712373,2.23866069 L17.9586357,2.28464803 C17.954062,2.30003964 17.9491205,2.31531952 17.943816,2.33047344 L17.9363292,2.35112344 L16.4363292,6.35112344 C16.2424091,6.86824377 15.6659969,7.1302493 15.1488766,6.93632918 C14.6686934,6.75626049 14.4084817,6.24638999 14.5290218,5.76043459 L14.5636708,5.64887656 L15.1183591,4.16445052 C10.7269663,6.78350102 8.0214482,9.83066096 6.95577901,13.2940858 C6.79335988,13.821948 6.23377632,14.1181981 5.70591415,13.955779 C5.17805198,13.7933599 4.88180186,13.2337763 5.04422099,12.7059142 C6.2845363,8.6748894 9.37357372,5.22599734 14.2630932,2.34682366 L12.7574644,1.9701425 C12.2599405,1.84576154 11.9435176,1.36873469 12.0080996,0.8722352 L12.0298575,0.757464375 C12.1542385,0.259940532 12.6312653,-0.056482382 13.1277648,0.0080995804 Z" id="形状结合" fill="#7982A6" fill-rule="nonzero"></path>
    </g>
</svg>