<?xml version="1.0" encoding="UTF-8"?>
<svg width="18px" height="18px" viewBox="0 0 18 18" version="1.1" xmlns="http://www.w3.org/2000/svg" xmlns:xlink="http://www.w3.org/1999/xlink">
    <title>icon/Other/ic_log</title>
    <g id="icon/Other/ic_log" stroke="none" stroke-width="1" fill="none" fill-rule="evenodd">
        <rect id="矩形" fill-opacity="0" fill="#FFFFFF" x="0" y="0" width="18" height="18"></rect>
        <path d="M15,0 C15.5522847,-1.01453063e-16 16,0.44771525 16,1 L16,14.5857864 C16,14.8510029 15.8946432,15.1053568 15.7071068,15.2928932 L13.2928932,17.7071068 C13.1053568,17.8946432 12.8510029,18 12.5857864,18 L3,18 C2.44771525,18 2,17.5522847 2,17 L2,1 C2,0.44771525 2.44771525,6.76353751e-17 3,0 L15,0 Z M10,11 L5,11 L5,12 L10,12 L10,11 Z M13,8 L5,8 L5,9 L13,9 L13,8 Z M13,5 L5,5 L5,6 L13,6 L13,5 Z" id="形状结合" fill="#325BF2" opacity="0.6"></path>
    </g>
</svg>