<?xml version="1.0" encoding="UTF-8"?>
<svg width="24px" height="24px" viewBox="0 0 24 24" version="1.1" xmlns="http://www.w3.org/2000/svg" xmlns:xlink="http://www.w3.org/1999/xlink">
    <title>icon/ic_list_error</title>
    <g id="icon/ic_list_error" stroke="none" stroke-width="1" fill="none" fill-rule="evenodd">
        <path d="M12.52145,3.06444754 C12.6568159,3.14717114 12.7705582,3.26091347 12.8532818,3.39627936 L22.070225,18.47855 C22.3582139,18.9498045 22.2096477,19.5652929 21.7383932,19.8532818 C21.5813853,19.9492311 21.4009479,20 21.2169432,20 L2.78305684,20 C2.23077209,20 1.78305684,19.5522847 1.78305684,19 C1.78305684,18.8159952 1.83382572,18.6355579 1.92977501,18.47855 L11.1467182,3.39627936 C11.4347071,2.92502482 12.0501955,2.77645865 12.52145,3.06444754 Z M12,16 C11.4477153,16 11,16.4477153 11,17 C11,17.5522847 11.4477153,18 12,18 C12.5522847,18 13,17.5522847 13,17 C13,16.4477153 12.5522847,16 12,16 Z M12,7 C11.9804519,7 11.9609086,7.00061013 11.9413986,7.00182951 C11.4235645,7.03419414 11.0300137,7.4802184 11.0623783,7.99805258 L11.4688109,14.5009737 C11.4863422,14.7814752 11.7189512,15 12,15 C12.2810488,15 12.5136578,14.7814752 12.5311891,14.5009737 L12.9376217,7.99805258 C12.9388411,7.97854258 12.9394512,7.95899928 12.9394512,7.93945122 C12.9394512,7.42060664 12.5188446,7 12,7 Z" id="形状结合" fill="#E74141"></path>
        <rect id="矩形" fill-opacity="0" fill="#D8D8D8" x="0" y="0" width="24" height="24"></rect>
    </g>
</svg>