<?xml version="1.0" encoding="UTF-8"?>
<svg width="18px" height="18px" viewBox="0 0 18 18" version="1.1" xmlns="http://www.w3.org/2000/svg" xmlns:xlink="http://www.w3.org/1999/xlink">
    <title>icon/Other/ic_members</title>
    <g id="icon/Other/ic_members" stroke="none" stroke-width="1" fill="none" fill-rule="evenodd">
        <rect id="矩形" fill-opacity="0" fill="#FFFFFF" x="0" y="0" width="18" height="18"></rect>
        <path d="M12,7 C15.3137085,7 18,9.56700338 18,11.5 C18,12.9904794 16.4028603,13.6688049 14.1524559,13.9012673 C13.496378,12.3867903 11.9724933,11.0389151 10.096805,10.2454982 L9.899,10.165 L10.0355339,10.0355339 C10.8249911,9.24607668 11.3516795,8.19385058 11.4731514,7.02130312 C11.6471477,7.00735081 11.8226755,7 12,7 Z M12,0 C13.6568542,0 15,1.34314575 15,3 C15,4.65685425 13.6568542,6 12,6 C11.8189366,6 11.6416196,5.98395957 11.4693926,5.95322222 C11.2988122,4.37502829 10.3927282,3.01730268 9.10111644,2.22900316 C9.44043519,0.945621639 10.6097867,0 12,0 Z" id="形状结合" fill="#325BF2" opacity="0.6"></path>
        <path d="M6.5,10 C8.43299662,10 10,8.43299662 10,6.5 C10,4.56700338 8.43299662,3 6.5,3 C4.56700338,3 3,4.56700338 3,6.5 C3,8.43299662 4.56700338,10 6.5,10 Z M6.5,18 C10.0898509,18 13,17.4329966 13,15.5 C13,13.5670034 10.0898509,11 6.5,11 C2.91014913,11 0,13.5670034 0,15.5 C0,17.4329966 2.91014913,18 6.5,18 Z" id="形状结合" fill="#325BF2" opacity="0.6"></path>
    </g>
</svg>