<?xml version="1.0" encoding="UTF-8"?>
<svg width="18px" height="18px" viewBox="0 0 18 18" version="1.1" xmlns="http://www.w3.org/2000/svg" xmlns:xlink="http://www.w3.org/1999/xlink">
    <title>icon/Other/ic_notifications</title>
    <g id="icon/Other/ic_notifications" stroke="none" stroke-width="1" fill="none" fill-rule="evenodd">
        <rect id="矩形" fill-opacity="0" fill="#FFFFFF" x="0" y="0" width="18" height="18"></rect>
        <path d="M2,12 L2,8 C2,4.13400675 5.13400675,1 9,1 C12.8659932,1 16,4.13400675 16,8 L16,12 C16.5522847,12 17,12.4477153 17,13 C17,13.5522847 16.5522847,14 16,14 L2,14 C1.44771525,14 1,13.5522847 1,13 C1,12.4477153 1.44771525,12 2,12 Z" id="形状结合" fill="#325BF2" opacity="0.6"></path>
        <path d="M7,15 L11,15 C11,16.1045695 10.1045695,17 9,17 C7.8954305,17 7,16.1045695 7,15 L7,15 L7,15 Z" id="矩形备份" fill="#325BF2" opacity="0.6"></path>
    </g>
</svg>