<?xml version="1.0" encoding="UTF-8"?>
<svg width="18px" height="18px" viewBox="0 0 18 18" version="1.1" xmlns="http://www.w3.org/2000/svg" xmlns:xlink="http://www.w3.org/1999/xlink">
    <title>icon/Other/ic_passward</title>
    <g id="icon/Other/ic_passward" stroke="none" stroke-width="1" fill="none" fill-rule="evenodd">
        <path d="M14,6 C15.1045695,6 16,6.8954305 16,8 L16,16 C16,17.1045695 15.1045695,18 14,18 L4,18 C2.8954305,18 2,17.1045695 2,16 L2,8 C2,6.8954305 2.8954305,6 4,6 L14,6 Z M14,8 L4,8 L4,16 L14,16 L14,8 Z" id="矩形" fill="#7982A6" fill-rule="nonzero"></path>
        <path d="M9,0 C11.209139,0 13,1.790861 13,4 L13,7 L11,7 L11,4 C11,2.8954305 10.1045695,2 9,2 C7.8954305,2 7,2.8954305 7,4 L7,7 L5,7 L5,4 C5,1.790861 6.790861,0 9,0 Z" id="矩形" fill="#7982A6" fill-rule="nonzero"></path>
        <rect id="矩形" fill="#7982A6" x="8" y="10" width="2" height="5" rx="1"></rect>
        <path d="M9,12 C9.82842712,12 10.5,11.3284271 10.5,10.5 C10.5,9.67157288 9.82842712,9 9,9 C8.17157288,9 7.5,9.67157288 7.5,10.5 C7.5,11.3284271 8.17157288,12 9,12 Z" id="椭圆形" fill="#7982A6"></path>
    </g>
</svg>