<?xml version="1.0" encoding="UTF-8"?>
<svg width="14px" height="14px" viewBox="0 0 14 14" version="1.1" xmlns="http://www.w3.org/2000/svg" xmlns:xlink="http://www.w3.org/1999/xlink">
    <title>icon/Other/ic_password_failed</title>
    <g id="icon/Other/ic_password_failed" stroke="none" stroke-width="1" fill="none" fill-rule="evenodd">
        <path d="M8.6971797,12.7568679 L8.98009509,13.7160129 C8.35223924,13.9008308 7.68770072,14 7,14 L7,13 C7.58169629,13 8.15127794,12.9175061 8.6971797,12.7568679 Z M3.97966049,12.1856758 C4.47447066,12.4745991 5.00841877,12.6912791 5.56731456,12.8281215 L5.32950196,13.7994326 C4.66999636,13.6379571 4.04716906,13.3830325 3.47585338,13.0494921 L3.97966049,12.1856758 Z M11.5714505,10.8863238 L12.3333602,11.5340074 C11.8998007,12.0435062 11.3945273,12.4900957 10.8331487,12.8581673 L10.2851054,12.0217173 C10.7654601,11.7067332 11.1989523,11.3239919 11.5714505,10.8863238 Z M1.63312718,9.68607962 C1.8905685,10.1992861 2.22096497,10.6732949 2.61311827,11.0933581 L1.88238952,11.7760262 C1.42739125,11.2886949 1.04118104,10.7363135 0.739231212,10.1343541 L1.63312718,9.68607962 Z M12.9535665,7.75095344 L13.9458344,7.8750688 C13.8613024,8.55290649 13.6798552,9.20064612 13.4157968,9.80398367 L12.4999549,9.40244413 C12.7289514,8.87906277 12.8821142,8.32419571 12.9535665,7.75095344 Z M1.03708299,6.3283521 C1.01256052,6.54892094 1.000131,6.77182022 1,6.9958639 C1,7.35267061 1.03032105,7.70149287 1.09033046,8.04394224 L0.105379094,8.21677413 C0.036116903,7.82159939 0,7.41501747 0,7 C0,6.73565858 0.0146523802,6.47473941 0.0431892681,6.21801036 L1.03708299,6.3283521 Z M13.3345737,4.01733319 C13.6156712,4.6132839 13.8151461,5.2553043 13.9185794,5.92897549 L12.9302383,6.08123202 C12.8427395,5.5110246 12.6739163,4.96072231 12.4300372,4.44372952 L13.3345737,4.01733319 Z M1.58138009,2.56812644 L2.35488476,3.20191712 C1.99100102,3.64633742 1.69236512,4.14046378 1.46913902,4.66947588 L0.547998097,4.28024638 C0.810355729,3.65862203 1.15992665,3.08280513 1.58138009,2.56812644 Z M10.6916821,1.05148315 C11.2616391,1.40595207 11.7769183,1.84005427 12.2219652,2.33823536 L11.4763741,3.00463915 C11.0935093,2.57602837 10.6510744,2.20382274 10.1633764,1.90053745 L10.6916821,1.05148315 Z M5.18055253,1.28054433 C4.63285981,1.45459409 4.11422503,1.70687552 3.63924179,2.02871293 L3.07814175,1.20096491 C3.62722472,0.828896818 4.23195328,0.532764819 4.87724478,0.32765158 L5.18055253,1.28054433 Z M7,0 C7.59990796,0 8.18219006,0.0754652459 8.73787105,0.217420473 L8.49041559,1.18631975 C8.00784622,1.06303661 7.50850928,1 7,1 L6.9202066,1.00053216 L6.8733958,1.00130487 L6.853,0.002 L7,0 Z" id="椭圆形" fill="#666F99" fill-rule="nonzero"></path>
    </g>
</svg>