<?xml version="1.0" encoding="UTF-8"?>
<svg width="18px" height="18px" viewBox="0 0 18 18" version="1.1" xmlns="http://www.w3.org/2000/svg" xmlns:xlink="http://www.w3.org/1999/xlink">
    <title>icon/Other/ic_payment</title>
    <g id="icon/Other/ic_payment" stroke="none" stroke-width="1" fill="none" fill-rule="evenodd">
        <rect id="矩形" fill-opacity="0" fill="#FFFFFF" x="0" y="0" width="18" height="18"></rect>
        <path d="M17,6 L17,15 C17,15.5522847 16.5522847,16 16,16 L2,16 C1.44771525,16 1,15.5522847 1,15 L1,6 L17,6 Z M7,13 L3,13 L3,14 L7,14 L7,13 Z" id="形状结合" fill="#325BF2" opacity="0.6"></path>
        <path d="M2,2 L16,2 C16.5522847,2 17,2.44771525 17,3 L17,5 L17,5 L1,5 L1,3 C1,2.44771525 1.44771525,2 2,2 Z" id="矩形备份" fill="#325BF2" opacity="0.6"></path>
    </g>
</svg>