<svg xmlns="http://www.w3.org/2000/svg" xmlns:xlink="http://www.w3.org/1999/xlink" fill="none" version="1.1" width="24" height="24" viewBox="0 0 24 24"><g><g><path d="M11.4453,19.832Q13.19722,21,15,21Q18.2361,21,20.4472,19.894399999999997Q20.5718,19.8321,20.6746,19.7382Q20.7774,19.644199999999998,20.8506,19.5257Q20.9239,19.4072,20.9619,19.2733Q21,19.1393,21,19L21,7Q21,6.901509,20.9808,6.80491Q20.9616,6.708311,20.9239,6.617316Q20.8862,6.526322,20.8315,6.44443Q20.7767,6.362537,20.7071,6.292893Q20.6375,6.223249,20.5556,6.16853Q20.4737,6.113811,20.3827,6.0761205Q20.2917,6.0384294,20.1951,6.0192147Q20.0985,6,20,6Q19.7639,6,19.552799999999998,6.105573Q17.7639,7,15,7Q13.80277,7,12.5547,6.16795Q10.80278,5,9,5Q5.76393,5,3.552786,6.105573Q3.428207,6.167863,3.3253909999999998,6.261825Q3.222575,6.355787,3.149349,6.474269Q3.076123,6.592751,3.038062,6.726733Q3,6.860716,3,7L3,19Q3,19.0985,3.019215,19.1951Q3.03843,19.2917,3.076121,19.3827Q3.1138120000000002,19.4737,3.16853,19.5556Q3.223249,19.6375,3.292893,19.7071Q3.362537,19.776699999999998,3.44443,19.8315Q3.526322,19.886200000000002,3.617317,19.9239Q3.708311,19.9616,3.80491,19.980800000000002Q3.9015086,20,4,20Q4.236068,20,4.447213,19.894399999999997Q6.23607,19,9,19Q10.197230000000001,19,11.4453,19.832ZM19,18.3515Q17.3535,19,15,19Q13.80277,19,12.5547,18.1679Q10.802769999999999,17,9,17Q6.7529,17,5,17.533099999999997L5,7.64851Q6.64651,7,9,7Q10.19722,7,11.4453,7.83205Q13.19722,9,15,9Q17.2471,9,19,8.46691L19,18.3515Z" fill-rule="evenodd" fill="#627293" fill-opacity="1"/></g></g></svg>