<svg xmlns="http://www.w3.org/2000/svg" xmlns:xlink="http://www.w3.org/1999/xlink" fill="none" version="1.1" width="18" height="18" viewBox="0 0 18 18"><g><g><path d="M14.9998,-0.0000801086L16.891,5.51574L11.1342,4.58873L12.5278,2.9345Q10.9572,2,9,2Q6.1005,2,4.05025,4.05025Q2,6.1005,2,9Q2,11.8995,4.05025,13.9497Q6.1005,16,9,16Q11.8995,16,13.9497,13.9497Q16,11.8995,16,9C16,8.44772,16.4477,8,17,8C17.5523,8,18,8.44772,18,9Q18,12.7279,15.364,15.364Q12.7279,18,9,18Q5.27208,18,2.63604,15.364Q0,12.7279,0,9Q0,5.27208,2.63604,2.63604Q5.27208,0,9,0Q11.7032,0,13.8322,1.38599L14.9998,-0.0000801086Z" fill-rule="evenodd" fill="#7982A6" fill-opacity="1"/></g></g></svg>