<svg xmlns="http://www.w3.org/2000/svg" xmlns:xlink="http://www.w3.org/1999/xlink" fill="none" version="1.1" width="18" height="18" viewBox="0 0 18 18"><g><g><path d="M18,9Q18,9.22094,17.9892,9.44161Q17.9783,9.66228,17.9567,9.88215Q17.935,10.102,17.9026,10.3206Q17.8702,10.5391,17.8271,10.7558Q17.784,10.9725,17.7303,11.1868Q17.6766,11.4011,17.6125,11.6126Q17.5483,11.824,17.4739,12.032Q17.3995,12.24,17.3149,12.4441Q17.2304,12.6483,17.1359,12.848Q17.0414,13.0477,16.9373,13.2426Q16.8331,13.4374,16.7196,13.6269Q16.606,13.8164,16.4832,14.0001Q16.3605,14.1838,16.2289,14.3613Q16.0973,14.5388,15.9571,14.7095Q15.8169,14.8803,15.6686,15.044Q15.5202,15.2077,15.364,15.364Q15.2077,15.5202,15.044,15.6686Q14.8803,15.8169,14.7095,15.9571Q14.5388,16.0973,14.3613,16.2289Q14.1838,16.3605,14.0001,16.4832Q13.8164,16.606,13.6269,16.7196Q13.4374,16.8331,13.2426,16.9373Q13.0477,17.0414,12.848,17.1359Q12.6483,17.2304,12.4441,17.3149Q12.24,17.3995,12.032,17.4739Q11.824,17.5483,11.6126,17.6125Q11.4011,17.6766,11.1868,17.7303Q10.9725,17.784,10.7558,17.8271Q10.5391,17.8702,10.3206,17.9026Q10.102,17.935,9.88215,17.9567Q9.66228,17.9783,9.44161,17.9892Q9.22094,18,9,18Q8.77906,18,8.55839,17.9892Q8.33772,17.9783,8.11785,17.9567Q7.89797,17.935,7.67943,17.9026Q7.46088,17.8702,7.24419,17.8271Q7.02749,17.784,6.81318,17.7303Q6.59886,17.6766,6.38744,17.6125Q6.17601,17.5483,5.96799,17.4739Q5.75997,17.3995,5.55585,17.3149Q5.35173,17.2304,5.152,17.1359Q4.95228,17.0414,4.75743,16.9373Q4.56258,16.8331,4.37308,16.7196Q4.18357,16.606,3.99987,16.4832Q3.81616,16.3605,3.63871,16.2289Q3.46125,16.0973,3.29046,15.9571Q3.11967,15.8169,2.95597,15.6686Q2.79227,15.5202,2.63604,15.364Q2.47981,15.2077,2.33144,15.044Q2.18307,14.8803,2.04291,14.7095Q1.90274,14.5388,1.77113,14.3613Q1.63952,14.1838,1.51677,14.0001Q1.39403,13.8164,1.28044,13.6269Q1.16686,13.4374,1.06271,13.2426Q0.958559,13.0477,0.864096,12.848Q0.769633,12.6483,0.685084,12.4441Q0.600535,12.24,0.526103,12.032Q0.451672,11.824,0.387537,11.6126Q0.323402,11.4011,0.269719,11.1868Q0.216035,10.9725,0.172932,10.7558Q0.12983,10.5391,0.0974114,10.3206Q0.0649931,10.102,0.0433375,9.88215Q0.0216818,9.66228,0.0108409,9.44161Q0,9.22094,0,9Q0,8.77906,0.0108409,8.55839Q0.0216818,8.33772,0.0433375,8.11785Q0.0649931,7.89797,0.0974114,7.67943Q0.12983,7.46088,0.172932,7.24419Q0.216035,7.02749,0.269719,6.81318Q0.323402,6.59886,0.387537,6.38744Q0.451672,6.17601,0.526103,5.96799Q0.600535,5.75997,0.685084,5.55585Q0.769633,5.35173,0.864096,5.152Q0.958559,4.95228,1.06271,4.75743Q1.16686,4.56258,1.28044,4.37308Q1.39403,4.18357,1.51677,3.99987Q1.63952,3.81616,1.77113,3.63871Q1.90274,3.46125,2.04291,3.29046Q2.18307,3.11967,2.33144,2.95597Q2.47981,2.79227,2.63604,2.63604Q2.79227,2.47981,2.95597,2.33144Q3.11967,2.18307,3.29046,2.04291Q3.46125,1.90274,3.63871,1.77113Q3.81616,1.63952,3.99987,1.51677Q4.18357,1.39403,4.37308,1.28044Q4.56258,1.16686,4.75743,1.06271Q4.95228,0.958559,5.152,0.864096Q5.35173,0.769633,5.55585,0.685084Q5.75997,0.600535,5.96799,0.526103Q6.17601,0.451672,6.38744,0.387537Q6.59886,0.323402,6.81318,0.269719Q7.02749,0.216035,7.24419,0.172932Q7.46088,0.12983,7.67943,0.0974114Q7.89797,0.0649931,8.11785,0.0433375Q8.33772,0.0216818,8.55839,0.0108409Q8.77906,0,9,0Q9.22094,0,9.44161,0.0108409Q9.66228,0.0216818,9.88215,0.0433375Q10.102,0.0649931,10.3206,0.0974114Q10.5391,0.12983,10.7558,0.172932Q10.9725,0.216035,11.1868,0.269719Q11.4011,0.323402,11.6126,0.387537Q11.824,0.451672,12.032,0.526103Q12.24,0.600535,12.4441,0.685084Q12.6483,0.769633,12.848,0.864096Q13.0477,0.958559,13.2426,1.06271Q13.4374,1.16686,13.6269,1.28044Q13.8164,1.39403,14.0001,1.51677Q14.1838,1.63952,14.3613,1.77113Q14.5388,1.90274,14.7095,2.04291Q14.8803,2.18307,15.044,2.33144Q15.2077,2.47981,15.364,2.63604Q15.5202,2.79227,15.6686,2.95597Q15.8169,3.11967,15.9571,3.29046Q16.0973,3.46125,16.2289,3.63871Q16.3605,3.81616,16.4832,3.99987Q16.606,4.18357,16.7196,4.37308Q16.8331,4.56258,16.9373,4.75743Q17.0414,4.95228,17.1359,5.152Q17.2304,5.35173,17.3149,5.55585Q17.3995,5.75997,17.4739,5.96799Q17.5483,6.17601,17.6125,6.38744Q17.6766,6.59886,17.7303,6.81318Q17.784,7.02749,17.8271,7.24419Q17.8702,7.46088,17.9026,7.67943Q17.935,7.89797,17.9567,8.11785Q17.9783,8.33772,17.9892,8.55839Q18,8.77906,18,9ZM16,9Q16,8.82816,15.9916,8.65653Q15.9831,8.48489,15.9663,8.31388Q15.9494,8.14287,15.9242,7.97289Q15.899,7.80291,15.8655,7.63437Q15.832,7.46583,15.7902,7.29914Q15.7485,7.13245,15.6986,6.96801Q15.6487,6.80357,15.5908,6.64177Q15.5329,6.47997,15.4672,6.32122Q15.4014,6.16246,15.3279,6.00711Q15.2545,5.85177,15.1734,5.70022Q15.0924,5.54867,15.0041,5.40128Q14.9158,5.25389,14.8203,5.11101Q14.7248,4.96813,14.6225,4.8301Q14.5201,4.69208,14.4111,4.55925Q14.3021,4.42641,14.1867,4.29909Q14.0713,4.17176,13.9497,4.05025Q13.8282,3.92874,13.7009,3.81334Q13.5736,3.69794,13.4408,3.58893Q13.3079,3.47991,13.1699,3.37755Q13.0319,3.27518,12.889,3.17971Q12.7461,3.08424,12.5987,2.9959Q12.4513,2.90756,12.2998,2.82655Q12.1482,2.74555,11.9929,2.67207Q11.8375,2.5986,11.6788,2.53284Q11.52,2.46708,11.3582,2.40919Q11.1964,2.3513,11.032,2.30142Q10.8676,2.25153,10.7009,2.20978Q10.5342,2.16803,10.3656,2.1345Q10.1971,2.10098,10.0271,2.07576Q9.85713,2.05055,9.68612,2.03371Q9.51511,2.01686,9.34347,2.00843Q9.17184,2,9,2Q8.82816,2,8.65653,2.00843Q8.48489,2.01686,8.31388,2.03371Q8.14287,2.05055,7.97289,2.07576Q7.80291,2.10098,7.63437,2.1345Q7.46583,2.16803,7.29914,2.20978Q7.13245,2.25153,6.96801,2.30142Q6.80357,2.3513,6.64177,2.40919Q6.47997,2.46708,6.32122,2.53284Q6.16246,2.5986,6.00711,2.67207Q5.85177,2.74555,5.70022,2.82655Q5.54867,2.90756,5.40128,2.9959Q5.25389,3.08424,5.11101,3.17971Q4.96813,3.27518,4.8301,3.37755Q4.69208,3.47991,4.55925,3.58893Q4.42641,3.69794,4.29909,3.81334Q4.17176,3.92874,4.05025,4.05025Q3.92874,4.17176,3.81334,4.29909Q3.69794,4.42641,3.58893,4.55925Q3.47991,4.69208,3.37755,4.8301Q3.27518,4.96813,3.17971,5.11101Q3.08424,5.25389,2.9959,5.40128Q2.90756,5.54867,2.82655,5.70022Q2.74555,5.85177,2.67207,6.00711Q2.5986,6.16246,2.53284,6.32122Q2.46708,6.47997,2.40919,6.64177Q2.3513,6.80357,2.30142,6.96801Q2.25153,7.13245,2.20978,7.29914Q2.16803,7.46583,2.1345,7.63437Q2.10098,7.80291,2.07576,7.97289Q2.05055,8.14287,2.03371,8.31388Q2.01686,8.48489,2.00843,8.65653Q2,8.82816,2,9Q2,9.17184,2.00843,9.34347Q2.01686,9.51511,2.03371,9.68612Q2.05055,9.85713,2.07576,10.0271Q2.10098,10.1971,2.1345,10.3656Q2.16803,10.5342,2.20978,10.7009Q2.25153,10.8676,2.30142,11.032Q2.3513,11.1964,2.40919,11.3582Q2.46708,11.52,2.53284,11.6788Q2.5986,11.8375,2.67207,11.9929Q2.74555,12.1482,2.82655,12.2998Q2.90756,12.4513,2.9959,12.5987Q3.08424,12.7461,3.17971,12.889Q3.27518,13.0319,3.37755,13.1699Q3.47991,13.3079,3.58893,13.4408Q3.69794,13.5736,3.81334,13.7009Q3.92874,13.8282,4.05025,13.9497Q4.17176,14.0713,4.29909,14.1867Q4.42641,14.3021,4.55925,14.4111Q4.69208,14.5201,4.8301,14.6225Q4.96813,14.7248,5.11101,14.8203Q5.25389,14.9158,5.40128,15.0041Q5.54867,15.0924,5.70022,15.1734Q5.85177,15.2545,6.00711,15.3279Q6.16246,15.4014,6.32122,15.4672Q6.47997,15.5329,6.64177,15.5908Q6.80357,15.6487,6.96801,15.6986Q7.13245,15.7485,7.29914,15.7902Q7.46583,15.832,7.63437,15.8655Q7.80291,15.899,7.97289,15.9242Q8.14287,15.9494,8.31388,15.9663Q8.48489,15.9831,8.65653,15.9916Q8.82816,16,9,16Q9.17184,16,9.34347,15.9916Q9.51511,15.9831,9.68612,15.9663Q9.85713,15.9494,10.0271,15.9242Q10.1971,15.899,10.3656,15.8655Q10.5342,15.832,10.7009,15.7902Q10.8676,15.7485,11.032,15.6986Q11.1964,15.6487,11.3582,15.5908Q11.52,15.5329,11.6788,15.4672Q11.8375,15.4014,11.9929,15.3279Q12.1482,15.2545,12.2998,15.1734Q12.4513,15.0924,12.5987,15.0041Q12.7461,14.9158,12.889,14.8203Q13.0319,14.7248,13.1699,14.6225Q13.3079,14.5201,13.4408,14.4111Q13.5736,14.3021,13.7009,14.1867Q13.8282,14.0713,13.9497,13.9497Q14.0713,13.8282,14.1867,13.7009Q14.3021,13.5736,14.4111,13.4408Q14.5201,13.3079,14.6225,13.1699Q14.7248,13.0319,14.8203,12.889Q14.9158,12.7461,15.0041,12.5987Q15.0924,12.4513,15.1734,12.2998Q15.2545,12.1482,15.3279,11.9929Q15.4014,11.8375,15.4672,11.6788Q15.5329,11.52,15.5908,11.3582Q15.6487,11.1964,15.6986,11.032Q15.7485,10.8676,15.7902,10.7009Q15.832,10.5342,15.8655,10.3656Q15.899,10.1971,15.9242,10.0271Q15.9494,9.85713,15.9663,9.68612Q15.9831,9.51511,15.9916,9.34347Q16,9.17184,16,9Z" fill="#7982A6" fill-opacity="1"/></g></g></svg>