<svg xmlns="http://www.w3.org/2000/svg" xmlns:xlink="http://www.w3.org/1999/xlink" fill="none" version="1.1" width="18" height="18" viewBox="0 0 18 18"><g><g style="opacity:0.6000000238418579;"><path d="M17,17L15,17L15,1C15,0.447715,14.5523,0,14,0L4,0C3.44772,0,3,0.447715,3,1L3,17L1,17L1,18L17,18L17,17ZM12,8L12,9Q12,9.09849,12.0192,9.19509Q12.0384,9.29169,12.0761,9.38268Q12.1138,9.47368,12.1685,9.55557Q12.2232,9.63746,12.2929,9.70711Q12.3625,9.77675,12.4444,9.83147Q12.5263,9.88619,12.6173,9.92388Q12.7083,9.96157,12.8049,9.98078Q12.9015,10,13,10Q13.0985,10,13.1951,9.98078Q13.2917,9.96157,13.3827,9.92388Q13.4737,9.88619,13.5556,9.83147Q13.6375,9.77675,13.7071,9.70711Q13.7767,9.63746,13.8315,9.55557Q13.8862,9.47368,13.9239,9.38268Q13.9616,9.29169,13.9808,9.19509Q14,9.09849,14,9L14,8Q14,7.90151,13.9808,7.80491Q13.9616,7.70831,13.9239,7.61732Q13.8862,7.52632,13.8315,7.44443Q13.7767,7.36254,13.7071,7.29289Q13.6375,7.22325,13.5556,7.16853Q13.4737,7.11381,13.3827,7.07612Q13.2917,7.03843,13.1951,7.01921Q13.0985,7,13,7Q12.9015,7,12.8049,7.01922Q12.7083,7.03843,12.6173,7.07612Q12.5263,7.11381,12.4444,7.16853Q12.3625,7.22325,12.2929,7.29289Q12.2232,7.36254,12.1685,7.44443Q12.1138,7.52632,12.0761,7.61732Q12.0384,7.70831,12.0192,7.80491Q12,7.90151,12,8Z" fill-rule="evenodd" fill="#325BF2" fill-opacity="1"/></g></g></svg>