<svg xmlns="http://www.w3.org/2000/svg" xmlns:xlink="http://www.w3.org/1999/xlink" fill="none" version="1.1" width="18" height="18" viewBox="0 0 18 18"><g><g><ellipse cx="9" cy="9" rx="9" ry="9" fill="#325BF2" fill-opacity="1"/></g><g><path d="M13.76822,6.640185Q13.88054,6.505398,13.94027,6.340425Q14,6.175452,14,6Q14,5.9015086,13.98078,5.80491Q13.96157,5.708311,13.92388,5.617317Q13.88619,5.526322,13.83147,5.44443Q13.77675,5.362537,13.70711,5.292893Q13.63746,5.223249,13.55557,5.16853Q13.47368,5.113812,13.38268,5.076121Q13.29169,5.03843,13.19509,5.019215Q13.09849,5,13,5Q12.890049999999999,5,12.78273,5.023888Q12.67541,5.047776,12.57584,5.094411Q12.47628,5.141045,12.38922,5.208198Q12.30217,5.275352,12.23178,5.359815L12.231300000000001,5.360397L7.9328,10.51859L5.707107,8.29289Q5.566454,8.152239999999999,5.382683,8.07612Q5.198912,8,5,8Q4.9015086,8,4.80491,8.019210000000001Q4.708311,8.03843,4.617317,8.07612Q4.526322,8.11381,4.44443,8.16853Q4.362537,8.22325,4.292893,8.29289Q4.223249,8.36254,4.16853,8.44443Q4.113812,8.52632,4.076121,8.61732Q4.03843,8.70831,4.019215,8.80491Q4,8.90151,4,9Q4,9.19891,4.0761199999999995,9.38268Q4.152241,9.56645,4.292893,9.70711L7.29289,12.70711Q7.32497,12.739180000000001,7.35982,12.76822Q7.51262,12.89556,7.702529999999999,12.95473Q7.892440000000001,13.0139,8.09054,12.99589Q8.28863,12.977879999999999,8.46476,12.88544Q8.64088,12.79299,8.76822,12.64018L13.76774,6.640765L13.76822,6.640184L13.76822,6.640185Z" fill-rule="evenodd" fill="#FFFFFF" fill-opacity="1"/></g></g></svg>