<?xml version="1.0" encoding="UTF-8"?>
<svg width="18px" height="18px" viewBox="0 0 18 18" version="1.1" xmlns="http://www.w3.org/2000/svg" xmlns:xlink="http://www.w3.org/1999/xlink">
    <title>icon/Other/ic_search</title>
    <g id="icon/Other/ic_search" stroke="none" stroke-width="1" fill="none" fill-rule="evenodd">
        <rect id="矩形" fill-opacity="0" fill="#FFFFFF" x="0" y="0" width="18" height="18"></rect>
        <path d="M8.5,0 C13.1944204,0 17,3.80557963 17,8.5 C17,10.4226908 16.3616251,12.1962812 15.2852673,13.6203794 L17.548097,15.8838835 C17.9386213,16.2744078 17.9386213,16.9075727 17.548097,17.298097 C17.1575727,17.6886213 16.5244078,17.6886213 16.1338835,17.298097 L13.900398,15.0642826 C12.4320275,16.2736982 10.5508322,17 8.5,17 C3.80557963,17 0,13.1944204 0,8.5 C0,3.80557963 3.80557963,0 8.5,0 Z M8.5,2 C4.91014913,2 2,4.91014913 2,8.5 C2,12.0898509 4.91014913,15 8.5,15 C12.0898509,15 15,12.0898509 15,8.5 C15,4.91014913 12.0898509,2 8.5,2 Z" id="形状结合" fill="#7982A6"></path>
    </g>
</svg>