<?xml version="1.0" encoding="UTF-8"?>
<svg width="18px" height="18px" viewBox="0 0 18 18" version="1.1" xmlns="http://www.w3.org/2000/svg" xmlns:xlink="http://www.w3.org/1999/xlink">
    <title>icon/Other/ic_update</title>
    <g id="icon/Other/ic_update" stroke="none" stroke-width="1" fill="none" fill-rule="evenodd">
        <rect id="矩形" fill-opacity="0" fill="#FFFFFF" x="0" y="0" width="18" height="18"></rect>
        <path d="M4,16 L14,16 C14.5522847,16 15,16.4477153 15,17 C15,17.5522847 14.5522847,18 14,18 L4,18 C3.44771525,18 3,17.5522847 3,17 C3,16.4477153 3.44771525,16 4,16 Z M8.03379638,0.506303853 L0.951696302,6.4701776 C0.500433828,6.85018811 0.239967794,7.41004593 0.239967794,8 L0.24545353,8.14926234 C0.321802672,9.18412221 1.185606,10 2.23996779,10 L2.999,10 L3,14.0000064 C3.00000356,14.5522887 3.44771777,15 4,15 L14,15 L14.1166216,14.9932722 C14.6139625,14.9355066 15.0000033,14.5128317 15,13.9999936 L14.999,9.999 L15.7598451,9.99999998 C16.3499863,10 16.9098441,9.73953397 17.2898546,9.28827149 C18.0013473,8.44337391 17.8932013,7.1816703 17.0483037,6.4701776 L9.96620362,0.506303853 C9.40786771,0.036126249 8.59213229,0.036126249 8.03379638,0.506303853 Z M2.23996779,8 L9,2.308 L15.7600322,8 L14.0001549,7.99967067 L13.883517,8.00637832 C13.3861037,8.06406524 12.9999645,8.48677106 12.9999678,8.99967709 L13,13 L4.999,13 L4.99996779,8.99966421 C4.99996424,8.44730889 4.55213597,7.9995673 3.99978066,7.99967067 L2.23996779,8 Z" id="形状结合" fill="#7982A6"></path>
    </g>
</svg>