<svg xmlns="http://www.w3.org/2000/svg" xmlns:xlink="http://www.w3.org/1999/xlink" fill="none" version="1.1" width="18" height="18" viewBox="0 0 18 18"><g><g><path d="M0 0C0 0 0 0 0 0L18 0C18 0 18 0 18 0L18 18C18 18 18 18 18 18L0 18C0 18 0 18 0 18Z" fill="#FFFFFF" fill-opacity="0"/></g><g><path d="M5,6L4,6L2,6Q1.171573,6,0.5857870000000001,6.585786Q0,7.171573,0,8L0,15Q0,15.82843,0.5857870000000001,16.41422Q1.1715740000000001,17,2,17L16,17Q16.828400000000002,17,17.4142,16.41421Q18,15.82843,18,15L18,8Q18,7.171574,17.4142,6.585787Q16.828400000000002,6,16,6L14,6L13,6L13,8L14,8L16,8L16,15L2,15L2,8L4,8L5,8L5,6Z" fill-rule="evenodd" fill="#325BF2" fill-opacity="1"/></g><g><path d="M8,2L8,12Q8,12.0985,8.019214999999999,12.1951Q8.038429,12.2917,8.07612,12.3827Q8.113812,12.4737,8.16853,12.5556Q8.223249,12.6375,8.292893,12.7071Q8.362537,12.7767,8.4444298,12.8315Q8.5263224,12.8862,8.617317,12.9239Q8.708311,12.9616,8.80491,12.9808Q8.901509,13,9,13Q9.098491,13,9.19509,12.9808Q9.291689,12.9616,9.382683,12.9239Q9.473678,12.8862,9.55557,12.8315Q9.63746,12.7767,9.70711,12.7071Q9.77675,12.6375,9.83147,12.5556Q9.88619,12.4737,9.92388,12.3827Q9.96157,12.2917,9.98079,12.1951Q10,12.0985,10,12L10,2Q10,1.9015086,9.98079,1.80491Q9.96157,1.7083110000000001,9.92388,1.617317Q9.88619,1.526322,9.83147,1.44443Q9.77675,1.362537,9.70711,1.2928929999999998Q9.63746,1.223249,9.55557,1.16853Q9.473678,1.113812,9.382683,1.076121Q9.291689,1.03843,9.19509,1.019215Q9.098491,1,9,1Q8.901509,1,8.80491,1.019215Q8.708311,1.03843,8.617317,1.076121Q8.5263224,1.113812,8.4444298,1.16853Q8.362537,1.223249,8.292893,1.2928929999999998Q8.223249,1.362537,8.16853,1.44443Q8.113812,1.526322,8.076121,1.617317Q8.038429,1.7083110000000001,8.019214999999999,1.80491Q8,1.9015086,8,2Z" fill-rule="evenodd" fill="#325BF2" fill-opacity="1"/></g><g><path d="M12.39966,4.79974L12.4,4.8Q12.52982,4.8973700000000004,12.683769999999999,4.9486799999999995Q12.837720000000001,5,13,5Q13.01922,5,13.03843,4.99926Q13.14991,4.99497,13.25771,4.96622Q13.36551,4.937469999999999,13.46432,4.88567Q13.56313,4.83387,13.6481,4.761559999999999Q13.73306,4.6892499999999995,13.8,4.6Q13.89737,4.47018,13.94868,4.31623Q14,4.16228,14,4L13.99996,3.9912Q13.99937,3.92455,13.98995,3.85858Q13.96182,3.66167,13.86047,3.49051Q13.75913,3.31935,13.6,3.2L9.6,0.19999999999999996Q9.53551,0.15163300000000002,9.46411,0.11422100000000002Q9.3927,0.07680799999999999,9.316230000000001,0.051316999999999946Q9.23975,0.025824999999999987,9.16018,0.012912000000000035Q9.08061,0,9,0Q8.91939,0,8.83982,0.012912000000000035Q8.76025,0.025824999999999987,8.683769999999999,0.051316999999999946Q8.6073,0.07680799999999999,8.53589,0.11422100000000002Q8.46449,0.15163300000000002,8.4,0.19999999999999996L4.40027,3.1998L4.4,3.2Q4.306853,3.26986,4.232248,3.35925Q4.157644,3.44864,4.105573,3.55279Q4.053502,3.65693,4.026751,3.77025Q4,3.88357,4,4L4.000086,4.01312Q4.002171,4.17202,4.053412,4.32245Q4.104652,4.47287,4.2,4.6Q4.3193470000000005,4.75913,4.490506,4.860469999999999Q4.661665,4.9618199999999995,4.858578,4.98995Q4.928932,5,5,5L5.00343048,4.99999Q5.164827,4.99944,5.317855,4.94814Q5.470882,4.89684,5.6,4.8L5.60027,4.799799999999999L9,2.25L12.39966,4.79974Z" fill-rule="evenodd" fill="#325BF2" fill-opacity="1"/></g></g></svg>