<?xml version="1.0" encoding="UTF-8"?>
<svg width="24px" height="24px" viewBox="0 0 24 24" version="1.1" xmlns="http://www.w3.org/2000/svg" xmlns:xlink="http://www.w3.org/1999/xlink">
    <title>icon/ic_unhide</title>
    <g id="icon/ic_unhide" stroke="none" stroke-width="1" fill="none" fill-rule="evenodd">
        <rect id="矩形" fill-opacity="0" fill="#D8D8D8" x="0" y="0" width="24" height="24"></rect>
        <path d="M12,3 C12.5522847,3 13,3.44771525 13,4 L13.0011612,7.02898894 C14.6919344,7.12849012 16.2390788,7.48401432 17.6370441,8.09368055 L19.4160693,5.44290106 C19.7237465,4.98425833 20.3449716,4.86187662 20.8036144,5.16955387 C21.2622571,5.47723112 21.3846388,6.09845621 21.0769615,6.55709894 L19.4033405,9.05121994 C20.7043914,9.90903952 21.8450349,11.0348276 22.8192319,12.4265377 C23.060256,12.7708578 23.060256,13.2291422 22.8192319,13.5734623 C20.2951533,17.179289 16.6537312,19 12,19 C7.3462688,19 3.70484671,17.179289 1.18076808,13.5734623 C0.939743974,13.2291422 0.939743974,12.7708578 1.18076808,12.4265377 C2.19751307,10.9740448 3.39556106,9.8112094 4.76804678,8.940358 L3.16955387,6.55709894 C2.86187662,6.09845621 2.98425833,5.47723112 3.44290106,5.16955387 C3.90154379,4.86187662 4.52276888,4.98425833 4.83044613,5.44290106 L6.55447154,8.01213636 C7.90211571,7.45211402 9.38551425,7.12383298 10.9998367,7.02893024 L11,4 C11,3.44771525 11.4477153,3 12,3 Z M12.045,9 L12,9 C12.4097984,9 12.8052036,9.06162492 13.1774539,9.17611322 C12.4831541,9.49010301 12,10.1886282 12,11 C12,12.1045695 12.8954305,13 14,13 C14.8113718,13 15.509897,12.5168459 15.8235627,11.8225505 C15.9383751,12.1947964 16,12.5902016 16,13 C16,15.209139 14.209139,17 12,17 C9.790861,17 8,15.209139 8,13 C8,10.8142913 9.75307449,9.03803501 11.929852,9.00060272 L12,9 C8.36327723,9 5.5377342,10.2423001 3.44519452,12.7533939 L3.245,13 L3.44519452,13.2466061 C5.46557765,15.6711104 8.16928378,16.9128155 11.6266777,16.9955674 L12,17 C15.6367228,17 18.4622658,15.7576999 20.5548055,13.2466061 L20.754,12.999 L20.5548055,12.7533939 C18.5344223,10.3288896 15.8307162,9.08718454 12.3733223,9.0044326 L12.045,9 Z" id="形状结合" fill="#4D4D4D" fill-rule="nonzero"></path>
    </g>
</svg>