<svg width="18" height="19" viewBox="0 0 18 19" fill="none" xmlns="http://www.w3.org/2000/svg">
<g opacity="0.6">
<path d="M9.66066 5.4583L13.2403 6.44756M8.89332 8.41189L10.6832 8.90652M8.98235 13.9764L9.69829 14.1742C11.7233 14.7338 12.7358 15.0137 13.5334 14.5387C14.331 14.0637 14.6023 13.0195 15.1449 10.931L15.9123 7.97737C16.4548 5.88887 16.7261 4.84462 16.2656 4.02195C15.8051 3.19929 14.7926 2.91948 12.7676 2.35987L12.0517 2.16201C10.0267 1.6024 9.01425 1.3226 8.21661 1.79756C7.41897 2.27253 7.14767 3.31678 6.60508 5.40528L5.83774 8.35887C5.29515 10.4474 5.02386 11.4916 5.48438 12.3143C5.94489 13.137 6.95738 13.4168 8.98235 13.9764Z" stroke="#325BF2" stroke-width="1.5" stroke-linecap="round"/>
<path d="M9 16.2944L8.28574 16.4961C6.26552 17.0667 5.25541 17.352 4.45964 16.8677C3.66388 16.3834 3.39322 15.3187 2.8519 13.1892L2.08636 10.1777C1.54505 8.04821 1.27439 6.98348 1.73383 6.14467C2.13125 5.41909 3 5.44551 4.125 5.44542" stroke="#325BF2" stroke-width="1.5" stroke-linecap="round"/>
</g>
</svg>
