<svg xmlns="http://www.w3.org/2000/svg" xmlns:xlink="http://www.w3.org/1999/xlink" fill="none" version="1.1" width="18" height="18" viewBox="0 0 18 18"><defs><clipPath id="master_svg0_2527_025517/0_16944"><rect x="0" y="0" width="18" height="18" rx="0"/></clipPath></defs><g clip-path="url(#master_svg0_2527_025517/0_16944)"><g><path d="M2.5000002,16.875C1.3954305599999999,16.875,0.5,15.979569,0.5,14.875L0.5,4.000000200000001C0.5,2.89543056,1.3954305599999999,2,2.5000002,2L5.687089,2C6.4151196,2,7.0806646,2.41132975,7.40625,3.0625C7.7318354,3.7136703,8.3973804,4.125,9.125411,4.125L15.5,4.125C16.60457,4.125,17.5,5.0204303,17.5,6.125L17.5,14.875C17.5,15.979569,16.60457,16.875,15.5,16.875L2.5000002,16.875ZM4.75,11.7937498L4.75,9.2062502C4.75,9.0405645,4.8843145,8.90625,5.0500002,8.90625L8.6999998,8.90625C8.8656855,8.90625,9,8.7719355,9,8.6062498L9,6.9742641C9,6.7069926,9.323143,6.5731425,9.5121326,6.7621322L13.037868,10.2878685C13.155025,10.4050255,13.155025,10.5949745,13.037868,10.7121315L9.5121326,14.237867C9.323143,14.426857,9,14.293007,9,14.025736L9,12.39375C9,12.228065,8.8656855,12.09375,8.6999998,12.09375L5.0500002,12.09375C4.8843145,12.09375,4.75,11.9594355,4.75,11.7937498Z" fill-rule="evenodd" fill="#7E96F1" fill-opacity="1"/></g></g></svg>