<svg xmlns="http://www.w3.org/2000/svg" xmlns:xlink="http://www.w3.org/1999/xlink" fill="none" version="1.1" width="17.75764274597168" height="16.9291934967041" viewBox="0 0 17.75764274597168 16.9291934967041"><g><path d="M5.9580002,13.563191Q6.2999997,13.563191,6.6060004,13.689192Q6.9120007,13.815193,7.1370006,14.040193Q7.362,14.265192,7.4970007,14.571193Q7.6320009,14.877193,7.6320004,15.219193Q7.632,15.561193,7.4970007,15.867193Q7.3620014,16.173193,7.1370006,16.398193Q6.9119997,16.623194,6.6060004,16.758194Q6.3000011,16.893192,5.9580002,16.893192Q5.5979996,16.893192,5.2919998,16.758194Q4.9860001,16.623194,4.7609997,16.398193Q4.5359993,16.173193,4.4009995,15.867193Q4.2659998,15.561193,4.2659998,15.219193Q4.2659998,14.877193,4.4009995,14.571193Q4.5359993,14.265192,4.7609997,14.040193Q4.9860001,13.815193,5.2919998,13.689192Q5.5979996,13.563191,5.9580002,13.563191ZM13.445999,13.599193Q13.787999,13.599193,14.102999,13.725193Q14.417999,13.851193,14.642999,14.076193Q14.867998,14.301193,15.002998,14.607193Q15.137999,14.913194,15.137999,15.255194Q15.137999,15.597194,15.002998,15.903193Q14.867998,16.209194,14.642999,16.434195Q14.417999,16.659193,14.102999,16.794193Q13.787999,16.929193,13.445999,16.929193Q13.104,16.929193,12.797999,16.794193Q12.491999,16.659193,12.266999,16.434195Q12.042,16.209194,11.907,15.903193Q11.771999,15.597194,11.771999,15.255194Q11.771999,14.913194,11.907,14.607193Q12.042,14.301193,12.266999,14.076193Q12.491999,13.851193,12.797999,13.725193Q13.104,13.599193,13.445999,13.599193ZM16.469999,3.3751915Q16.973999,3.3751915,17.253,3.5101914Q17.532,3.6451912,17.649,3.8431914Q17.765999,4.0411916,17.757,4.2661915Q17.747999,4.4911909,17.694,4.6531911Q17.639999,4.8151913,17.459999,5.319191Q17.279999,5.8231912,17.073,6.4261913Q16.866001,7.0291915,16.659,7.6231914Q16.451998,8.2171917,16.326,8.5591917Q16.091999,9.279192,15.740999,9.5581923Q15.389999,9.8371925,14.868,9.8371925L14.237999,9.8371925L13.085999,9.8371925L11.573999,9.8371925L9.881999,9.8371925L5.4180002,9.8371925L5.6700001,11.457192L14.76,11.457192Q15.624,11.457192,15.624,12.195192Q15.624,12.555192,15.452999,12.816193Q15.281999,13.077192,14.777999,13.077192L13.913999,13.077192L12.257998,13.077192L10.169999,13.077192L8.0640001,13.077192L6.3179998,13.077192L5.3459997,13.077192Q4.9859996,13.077192,4.743,12.915193Q4.5000005,12.753193,4.3379998,12.492192Q4.1759992,12.231192,4.0770001,11.925193Q3.9780009,11.619193,3.9240003,11.349193Q3.9060001,11.241193,3.825,10.827192Q3.744,10.413193,3.6269999,9.7921925Q3.5099998,9.1711922,3.3660002,8.4061918Q3.2220004,7.6411915,3.0780001,6.8671918Q2.7360001,5.0491915,2.3040001,2.8171916L0.954,2.8171916Q0.68399996,2.8171916,0.50400001,2.6821918Q0.32400003,2.5471921,0.20699999,2.3581917Q0.089999959,2.1691914,0.044999998,1.9531915Q4.1909516e-8,1.7371917,0,1.5571916Q0,1.1971917,0.24299999,0.96319163Q0.48599994,0.7291916,0.90000004,0.7291916L1.2779999,0.7291916L1.6559999,0.7291916L2.1059999,0.7291916L2.7179999,0.7291916Q3.0779998,0.7291916,3.2939999,0.83719152Q3.5100002,0.9451915,3.6359999,1.1071916Q3.7619996,1.2691915,3.816,1.4491916Q3.8700004,1.6291914,3.9059999,1.7551914Q3.9419999,1.8991915,3.9779997,2.1601915Q4.0139995,2.4211917,4.0499997,2.6911917Q4.1039996,3.0151918,4.1579995,3.3751917L16.469999,3.3751915ZM15.12,2.7991915L8.5320005,2.7991915L10.908,0.42319149Q11.322001,0.0091914609,11.816999,0.00019150972Q12.311999,-0.0088084415,12.725999,0.40519154L15.12,2.7991915Z" fill="#7E96F1" fill-opacity="1" style="mix-blend-mode:passthrough"/></g></svg>