<?xml version="1.0" encoding="UTF-8"?>
<svg width="100px" height="100px" viewBox="0 0 100 100" version="1.1" xmlns="http://www.w3.org/2000/svg" xmlns:xlink="http://www.w3.org/1999/xlink">
    <title>img/img_warning</title>
    <defs>
        <linearGradient x1="50%" y1="0%" x2="50%" y2="100%" id="linearGradient-1">
            <stop stop-color="#F6B043" offset="0%"></stop>
            <stop stop-color="#FBD878" offset="100%"></stop>
        </linearGradient>
    </defs>
    <g id="img/img_warning" stroke="none" stroke-width="1" fill="none" fill-rule="evenodd">
        <path d="M51.7606915,13.2145047 C52.3343038,13.5555714 52.8134668,14.0347344 53.1545335,14.6083466 L90.1224809,76.7817127 C91.2515175,78.680547 90.6274732,81.1351213 88.7286389,82.2641579 C88.1101459,82.6319105 87.4039037,82.8260143 86.6843373,82.8260143 L12.7484425,82.8260143 C10.5393035,82.8260143 8.74844254,81.0351533 8.74844254,78.8260143 C8.74844254,78.106448 8.94254636,77.4002058 9.31029899,76.7817127 L46.2782464,14.6083466 C47.407283,12.7095124 49.8618573,12.0854681 51.7606915,13.2145047 Z M50,67 C47.790861,67 46,68.790861 46,71 C46,73.209139 47.790861,75 50,75 C52.209139,75 54,73.209139 54,71 C54,68.790861 52.209139,67 50,67 Z M50,29 L49.8919741,29.0015001 C47.7441764,29.0611611 46.0514072,30.85066 46.1110683,32.9984577 L46.8025025,57.8900885 C46.8505955,59.6214393 48.2679814,61 50,61 C51.7320186,61 53.1494045,59.6214393 53.1974975,57.8900885 L53.8889317,32.9984577 C53.8899317,32.9624577 53.8904318,32.9264456 53.8904318,32.8904318 C53.8904318,30.7418056 52.1486262,29 50,29 Z" id="形状结合" fill="url(#linearGradient-1)"></path>
    </g>
</svg>