<?xml version="1.0" encoding="UTF-8"?>
<svg width="100px" height="100px" viewBox="0 0 100 100" version="1.1" xmlns="http://www.w3.org/2000/svg" xmlns:xlink="http://www.w3.org/1999/xlink">
    <title>img/img_no_internet</title>
    <defs>
        <linearGradient x1="11.3632886%" y1="4.09244116%" x2="97.6079633%" y2="100%" id="linearGradient-1">
            <stop stop-color="#3A79EE" offset="0%"></stop>
            <stop stop-color="#A3C3FF" offset="100%"></stop>
        </linearGradient>
        <linearGradient x1="50%" y1="0%" x2="50%" y2="100%" id="linearGradient-2">
            <stop stop-color="#FF9B4A" offset="0%"></stop>
            <stop stop-color="#FF9D3A" offset="100%"></stop>
        </linearGradient>
    </defs>
    <g id="img/img_no_internet" stroke="none" stroke-width="1" fill="none" fill-rule="evenodd">
        <ellipse id="椭圆形" fill-opacity="0.4" fill="#A5C5FF" cx="50" cy="95.5" rx="47" ry="3.5"></ellipse>
        <circle id="椭圆形" fill="url(#linearGradient-1)" opacity="0.517981393" cx="23" cy="4" r="2"></circle>
        <circle id="椭圆形备份" fill="#D8E6FF" cx="90" cy="78" r="2"></circle>
        <circle id="椭圆形备份-2" fill="url(#linearGradient-1)" cx="11.5" cy="15.5" r="3.5"></circle>
        <path d="M50,11 C69.882251,11 86,27.117749 86,47 C86,52.9510316 84.5560312,58.5648063 81.9993478,63.5100698 C80.3625967,62.3674233 78.470731,61.5667201 76.4263965,61.2095066 C77.3414614,59.51428 78.0968774,57.7201456 78.6739467,55.8478074 L78.3833378,55.9900934 C75.5190766,57.3816565 71.9604057,58.5099807 67.9055904,59.3410168 C67.6881956,60.5169156 67.4400709,61.6650657 67.1626314,62.7815838 C62.8884742,65.1770309 60,69.7511958 60,75 C60,77.2065753 60.5104877,79.2939198 61.419805,81.1503755 C58.7403021,82.0466623 55.9198595,82.635842 53.0006535,82.8767247 L53,83 L47,83 L47.0003482,82.8768074 C28.5215909,81.3525205 14,65.8721099 14,47 C14,27.117749 30.117749,11 50,11 Z M38.4399307,60.350502 L38.4656286,60.4628786 C40.2432119,68.1989775 43.446262,73.9668394 47.0003691,76.0997163 L47.0004102,60.9586267 C44.0302809,60.8760802 41.1621229,60.6708535 38.4399307,60.350502 Z M61.5601162,60.3502601 L61.3758108,60.3719842 C58.7088621,60.6800055 55.9034315,60.8778949 53.0005913,60.9585989 L53.0006289,76.0991174 C56.5715624,73.9554193 59.7879924,68.1422579 61.5601162,60.3502601 Z M21.3267654,55.8471633 L21.3840177,56.0337138 C23.9279239,64.0996953 29.7879122,70.6939483 37.3648709,74.2173609 C34.9767092,70.2381198 33.1637782,65.125282 32.0950594,59.3411087 C27.9016547,58.4817099 24.2393747,57.3045441 21.3267654,55.8471633 Z M47.0005163,39.0463765 C43.6579321,39.1501658 40.4350553,39.426204 37.4329067,39.8547083 L37.3962812,39.8591083 C37.1387071,42.1420641 37,44.5326208 37,47 C37,49.4673792 37.1387071,51.8579359 37.3962812,54.1408917 C40.4091138,54.5715712 43.6444785,54.8494165 47.0005163,54.9536235 L47.0005163,39.0463765 Z M53.0004818,39.0464075 L53.0004818,54.9535925 C56.356163,54.8493614 59.5911849,54.5715284 62.6033325,54.1401102 C62.8612929,51.8579359 63,49.4673792 63,47 C63,44.5326208 62.8612929,42.1420641 62.6037188,39.8591083 C59.5911849,39.4284716 56.356163,39.1506386 53.0004818,39.0464075 Z M31.2476357,41.0303454 L30.9953332,41.0920614 C29.80273,41.3892098 28.6724477,41.7151126 27.6141595,42.0678753 C24.9091288,42.9695522 22.802048,44.0091823 21.4502251,45.0745384 C20.4042049,45.8988949 20,46.5573282 20,47 C20,47.4426718 20.4042049,48.1011051 21.4502251,48.9254616 C22.802048,49.9908177 24.9091288,51.0304478 27.6141595,51.9321247 C28.7466981,52.3096376 29.9616875,52.6563892 31.2472723,52.9700579 C31.0842833,51.024951 31,49.0303139 31,47 C31,44.9696861 31.0842833,42.975049 31.2476357,41.0303454 Z M68.7527277,41.0299421 L68.7672936,41.2109247 C68.9208495,43.0984627 69,45.0324793 69,47 C69,49.0303139 68.9157167,51.024951 68.7523643,52.9696546 C70.0383125,52.6563892 71.2533019,52.3096376 72.3858405,51.9321247 C75.0908712,51.0304478 77.197952,49.9908177 78.5497749,48.9254616 C79.5957951,48.1011051 80,47.4426718 80,47 C80,46.5573282 79.5957951,45.8988949 78.5497749,45.0745384 C77.197952,44.0091823 75.0908712,42.9695522 72.3858405,42.0678753 C71.2533019,41.6903624 70.0383125,41.3436108 68.7527277,41.0299421 Z M37.3647753,19.7826747 L37.0462488,19.9330967 C29.5660021,23.5194934 23.803053,30.1154094 21.3260533,38.1521926 C24.2393747,36.6954559 27.9016547,35.5182901 32.0944096,34.6589832 C33.1637782,28.874718 34.9767092,23.7618802 37.3647753,19.7826747 Z M62.6351291,19.7826391 L62.8231041,20.1001044 C65.1184697,24.0322338 66.8644285,29.0273795 67.9049406,34.6588913 C72.0983453,35.5182901 75.7606253,36.6954559 78.6732346,38.1528367 C76.161891,30.001668 70.2702184,23.3330834 62.6351291,19.7826391 Z M47.0003691,17.9002837 C43.4290369,20.0434977 40.2121727,25.8570163 38.4398838,33.6497399 L38.6241892,33.6280158 C41.2914446,33.3199591 44.0972137,33.1220596 47.0004102,33.0413733 L47.0003691,17.9002837 Z M53.0006289,17.9008826 L53.0005913,33.0414011 C55.9703638,33.1239659 58.838183,33.3291825 61.5600693,33.649498 C59.7879924,25.8577421 56.5715624,20.0445807 53.0006289,17.9008826 Z" id="形状结合" fill="url(#linearGradient-1)" fill-rule="nonzero"></path>
        <path d="M74,63 C80.627417,63 86,68.372583 86,75 C86,81.627417 80.627417,87 74,87 C67.372583,87 62,81.627417 62,75 C62,68.372583 67.372583,63 74,63 Z M74,80 C73.1715729,80 72.5,80.6715729 72.5,81.5 C72.5,82.3284271 73.1715729,83 74,83 C74.8284271,83 75.5,82.3284271 75.5,81.5 C75.5,80.6715729 74.8284271,80 74,80 Z M74,67 C73.9447959,67 73.8896202,67.0025028 73.8346429,67.0075008 C72.8300764,67.098825 72.0897473,67.9872199 72.1810715,68.9917864 L72.9094643,77.0041068 C72.9607396,77.5681354 73.4336455,78 74,78 C74.5663545,78 75.0392604,77.5681354 75.0905357,77.0041068 L75.8189285,68.9917864 C75.8239265,68.936809 75.8264293,68.8816334 75.8264293,68.8264293 C75.8264293,67.8177202 75.008709,67 74,67 Z" id="形状结合" fill="url(#linearGradient-2)"></path>
    </g>
</svg>