<?xml version="1.0" encoding="UTF-8"?>
<svg width="100px" height="100px" viewBox="0 0 100 100" version="1.1" xmlns="http://www.w3.org/2000/svg" xmlns:xlink="http://www.w3.org/1999/xlink">
    <title>img/img_initialization</title>
    <defs>
        <linearGradient x1="10.5578844%" y1="1.99754485%" x2="96.3409093%" y2="100%" id="linearGradient-1">
            <stop stop-color="#9ABDFF" offset="0%"></stop>
            <stop stop-color="#B1CCFF" offset="100%"></stop>
        </linearGradient>
        <linearGradient x1="11.3632886%" y1="4.09244116%" x2="97.6079633%" y2="100%" id="linearGradient-2">
            <stop stop-color="#3A79EE" offset="0%"></stop>
            <stop stop-color="#A3C3FF" offset="100%"></stop>
        </linearGradient>
        <linearGradient x1="110.987608%" y1="50.0184832%" x2="1.48360495%" y2="71.6225051%" id="linearGradient-3">
            <stop stop-color="#5891FB" offset="0.0843394886%"></stop>
            <stop stop-color="#97BBFF" offset="100%"></stop>
        </linearGradient>
        <linearGradient x1="28.0776048%" y1="4.73148809%" x2="-6.3549302%" y2="82.4284002%" id="linearGradient-4">
            <stop stop-color="#467DE4" stop-opacity="0.90739729" offset="0%"></stop>
            <stop stop-color="#B1CCFF" stop-opacity="0.9" offset="100%"></stop>
        </linearGradient>
        <linearGradient x1="11.3632886%" y1="13.7273609%" x2="97.6079633%" y2="89.5061728%" id="linearGradient-5">
            <stop stop-color="#3A79EE" offset="0%"></stop>
            <stop stop-color="#A3C3FF" offset="100%"></stop>
        </linearGradient>
    </defs>
    <g id="img/img_initialization" stroke="none" stroke-width="1" fill="none" fill-rule="evenodd">
        <ellipse id="椭圆形" fill="#D8E6FF" cx="50" cy="95.5" rx="47" ry="3.5"></ellipse>
        <path d="M37.1329561,41.5384424 L27.5646193,52.063843 C26.3774876,53.3696879 26.1864268,55.2992153 27.0944079,56.8125172 L29.8076118,61.3345238 L21.3223305,57.0918831 L19.9081169,55.6776695 L15.6654762,47.1923882 L20.1874828,49.9055921 C21.7007847,50.8135732 23.6303121,50.6225124 24.936157,49.4353807 L35.461597,39.8671184 C35.8376342,40.5782778 36.4217879,41.1624198 37.1329561,41.5384424 Z M64.0560293,36.9066586 L63.631459,46.3839863 L62.9147231,48.2511471 L56.8886703,55.5782671 L57.5280397,50.3436491 C57.7420064,48.5918698 56.7826541,46.9068702 55.1670204,46.1967715 L42.1440399,40.4731269 C42.628631,39.8579253 42.9365336,39.0970353 42.991232,38.2669724 L56.4991482,42.7264598 C58.1079149,43.257689 59.8683989,42.7165164 60.9030435,41.3939314 L61.0285302,41.2245595 L64.0560293,36.9066586 Z M35.0205933,12.2868842 L44.4276649,13.5144848 L39.6496429,15.7461938 C38.0506648,16.4930413 37.1300834,18.1995319 37.384041,19.945962 L39.4310134,34.022951 C39.2894218,34.0077814 39.1456196,34 39,34 C38.3162772,34 37.6726207,34.1715442 37.1097225,34.4739404 L33.7351295,20.6552385 C33.3324767,19.0067809 31.9368025,17.7993562 30.2633419,17.6258151 L30.061239,17.6099907 L24.7951213,17.3306647 L33.0573389,12.6685022 L35.0205933,12.2868842 Z" id="形状结合" fill="url(#linearGradient-1)"></path>
        <path d="M45.3072211,1.53543699 C47.5362634,1.91826425 49.6971515,2.50050595 51.7708621,3.26313878 L51.4071283,9.58258642 C53.5410706,10.515587 55.5496891,11.6819069 57.4007327,13.049295 L62.6900932,9.57733986 C64.4062438,11.0092925 65.9907075,12.5937562 67.4226601,14.3099068 L63.9499631,19.5982629 C65.3174579,21.4492956 66.4838805,23.4579169 67.416977,25.5918732 L73.7368612,25.2291379 C74.4994396,27.3027005 75.0816526,29.4634282 75.464481,31.6923017 L69.8088223,34.5377046 C69.9351414,35.674389 70,36.8296202 70,38 C70,39.1703235 69.9351476,40.3254999 69.8088405,41.4621315 L75.464563,44.3072211 C75.0817358,46.5362634 74.4994941,48.6971515 73.7368612,50.7708621 L67.4174136,50.4071283 C66.484413,52.5410706 65.3180931,54.5496891 63.950705,56.4007327 L67.4226601,61.6900932 C65.9907075,63.4062438 64.4062438,64.9907075 62.6900932,66.4226601 L57.4007327,62.950705 C55.5496891,64.3180931 53.5410706,65.484413 51.4071283,66.4174136 L51.7708621,72.7368612 C49.6971515,73.4994941 47.5362634,74.0817358 45.3072211,74.464563 L42.4621315,68.8088405 C41.3254999,68.9351476 40.1703235,69 39,69 C37.8296202,69 36.674389,68.9351414 35.5377046,68.8088223 L32.6923017,74.464481 C30.4634282,74.0816526 28.3027005,73.4994396 26.2291379,72.7368612 L26.5918732,66.416977 C24.4579169,65.4838805 22.4492956,64.3174579 20.5982629,62.9499631 L15.3099068,66.4226601 C13.5937562,64.9907075 12.0092925,63.4062438 10.5773399,61.6900932 L14.049295,56.4007327 C12.6819069,54.5496891 11.515587,52.5410706 10.5825864,50.4071283 L4.26313878,50.7708621 C3.50050595,48.6971515 2.91826425,46.5362634 2.53543699,44.3072211 L8.19115945,41.4621315 C8.06485238,40.3254999 8,39.1703235 8,38 C8,36.8299627 8.06482067,35.675065 8.19106682,34.5387022 L2.53534739,31.6933007 C2.9181734,29.4640738 3.50044645,27.3030103 4.26313878,25.2291379 L10.583023,25.5918732 C11.5161195,23.4579169 12.6825421,21.4492956 14.0500369,19.5982629 L10.5773399,14.3099068 C12.0092925,12.5937562 13.5937562,11.0092925 15.3099068,9.57733986 L20.5982629,13.0500369 C22.4492956,11.6825421 24.4579169,10.5161195 26.5918732,9.58302298 L26.2291379,3.26313878 C28.3030103,2.50044645 30.4640738,1.9181734 32.6933007,1.53534739 L35.5387022,7.19106682 C36.675065,7.06482067 37.8299627,7 39,7 C40.1703235,7 41.3254999,7.06485238 42.4621315,7.19115945 L45.3072211,1.53543699 Z M39,16 C26.8497355,16 17,25.8497355 17,38 C17,50.1502645 26.8497355,60 39,60 C51.1502645,60 61,50.1502645 61,38 C61,25.8497355 51.1502645,16 39,16 Z" id="形状结合" fill="url(#linearGradient-2)"></path>
        <path d="M35.4644661,34.4644661 C37.4170876,32.5118446 40.5829124,32.5118446 42.5355339,34.4644661 C44.4881554,36.4170876 44.4881554,39.5829124 42.5355339,41.5355339 C40.5829124,43.4881554 37.4170876,43.4881554 35.4644661,41.5355339 C33.5118446,39.5829124 33.5118446,36.4170876 35.4644661,34.4644661 Z M39,36 C37.8954305,36 37,36.8954305 37,38 C37,39.1045695 37.8954305,40 39,40 C40.1045695,40 41,39.1045695 41,38 C41,36.8954305 40.1045695,36 39,36 Z" id="形状结合" fill="url(#linearGradient-3)"></path>
        <path d="M72.5178981,58.4092093 L75.4072067,61.9745818 C75.8985955,61.9259952 76.3969539,61.9011218 76.9011218,61.9011218 C77.7177386,61.9011218 78.5191141,61.9663779 79.300318,62.09196 L82.1104546,58.6241296 C83.7146255,59.0804768 85.2322707,59.7423204 86.6331226,60.5793926 L86.1597813,65.0987272 C87.1058385,65.8419186 87.960325,66.6964051 88.7035164,67.6424624 L93.2222537,67.1681215 C94.0597813,68.5695403 94.7219317,70.0878636 95.1783968,71.6927832 L91.7102496,74.5017137 C91.8358539,75.2829846 91.9011218,76.0844311 91.9011218,76.9011218 C91.9011218,77.4056313 91.8762147,77.9043234 91.8275631,78.3960356 L95.3931834,81.2837143 C95.0271329,82.8341127 94.4711477,84.3111407 93.7511425,85.6888838 L89.3782349,85.2299295 C88.5175806,86.5166887 87.463159,87.6628675 86.2567037,88.6267322 L86.731885,93.1634286 C85.4933518,93.9137442 84.1622382,94.5265628 82.7597117,94.9807168 L80.0052423,91.5795455 C79.0036959,91.7902923 77.9653517,91.9011218 76.9011218,91.9011218 C76.1433822,91.9011218 75.3987654,91.8449363 74.6712103,91.736504 L71.8476669,95.221735 C70.5042947,94.8520159 69.2205009,94.3384993 68.0138771,93.6987766 L68.4734985,89.311573 C66.9081982,88.2465506 65.5548935,86.8931399 64.4899934,85.3277497 L60.1037554,85.7889106 C59.4638987,84.5821286 58.9502833,83.2981508 58.5805086,81.9545767 L62.0657059,79.1308073 C61.9572957,78.403324 61.9011218,77.658783 61.9011218,76.9011218 C61.9011218,75.8371946 62.0118883,74.7991383 62.2225183,73.7978558 L58.8214884,71.0426505 C59.275768,69.6397046 59.8888067,68.3082133 60.6394182,67.069363 L65.1747158,67.5465358 C66.1384955,66.3399778 67.2846065,65.2854467 68.5713132,64.4246782 L68.1132593,60.0511537 C69.490844,59.3312206 70.9676923,58.7752705 72.5178981,58.4092093 Z M77,69 C72.581722,69 69,72.581722 69,77 C69,81.418278 72.581722,85 77,85 C81.418278,85 85,81.418278 85,77 C85,72.581722 81.418278,69 77,69 Z" id="形状结合" fill="url(#linearGradient-4)"></path>
        <path d="M23.5,79 L28,87 L23.5,95 L14.5,95 L10,87 L14.5,79 L23.5,79 Z M19,84 C17.3431458,84 16,85.3431458 16,87 C16,88.6568542 17.3431458,90 19,90 C20.6568542,90 22,88.6568542 22,87 C22,85.3431458 20.6568542,84 19,84 Z" id="形状结合" fill="url(#linearGradient-5)"></path>
    </g>
</svg>