<?xml version="1.0" encoding="UTF-8"?>
<svg width="100px" height="100px" viewBox="0 0 100 100" version="1.1" xmlns="http://www.w3.org/2000/svg" xmlns:xlink="http://www.w3.org/1999/xlink">
    <title>img/img_error</title>
    <defs>
        <linearGradient x1="11.3632886%" y1="4.09244116%" x2="97.6079633%" y2="100%" id="linearGradient-1">
            <stop stop-color="#3A79EE" offset="0%"></stop>
            <stop stop-color="#A3C3FF" offset="100%"></stop>
        </linearGradient>
    </defs>
    <g id="img/img_error" stroke="none" stroke-width="1" fill="none" fill-rule="evenodd">
        <ellipse id="椭圆形" fill="#D8E6FF" cx="50" cy="95.5" rx="47" ry="3.5"></ellipse>
        <circle id="椭圆形" fill="url(#linearGradient-1)" opacity="0.517981393" cx="23" cy="4" r="2"></circle>
        <circle id="椭圆形备份" fill="#D8E6FF" cx="90" cy="78" r="2"></circle>
        <circle id="椭圆形备份-2" fill="url(#linearGradient-1)" cx="11.5" cy="15.5" r="3.5"></circle>
        <path d="M50,8 C70.9868205,8 88,25.0131795 88,46 C88,66.9868205 70.9868205,84 50,84 C29.0131795,84 12,66.9868205 12,46 C12,25.0131795 29.0131795,8 50,8 Z M50,19 C35.0883118,19 23,31.0883118 23,46 C23,60.9116882 35.0883118,73 50,73 C64.9116882,73 77,60.9116882 77,46 C77,31.0883118 64.9116882,19 50,19 Z" id="形状结合" fill="url(#linearGradient-1)"></path>
        <path d="M42.2218254,31.1507576 L49.9992915,38.9282915 L57.7781746,31.1507576 C59.7307961,29.1981361 62.8966209,29.1981361 64.8492424,31.1507576 C66.8018639,33.1033791 66.8018639,36.2692039 64.8492424,38.2218254 L57.0702915,45.9992915 L64.8492424,53.7781746 C66.8018639,55.7307961 66.8018639,58.8966209 64.8492424,60.8492424 C62.8966209,62.8018639 59.7307961,62.8018639 57.7781746,60.8492424 L49.9992915,53.0702915 L42.2218254,60.8492424 C40.2692039,62.8018639 37.1033791,62.8018639 35.1507576,60.8492424 C33.1981361,58.8966209 33.1981361,55.7307961 35.1507576,53.7781746 L42.9282915,45.9992915 L35.1507576,38.2218254 C33.1981361,36.2692039 33.1981361,33.1033791 35.1507576,31.1507576 C37.1033791,29.1981361 40.2692039,29.1981361 42.2218254,31.1507576 Z" id="形状结合" fill="url(#linearGradient-1)"></path>
    </g>
</svg>