<svg xmlns="http://www.w3.org/2000/svg" xmlns:xlink="http://www.w3.org/1999/xlink" fill="none" version="1.1" width="42" height="42" viewBox="0 0 42 42"><defs><clipPath id="master_svg0_1861_090768"><rect x="0" y="0" width="42" height="42" rx="4"/></clipPath></defs><g clip-path="url(#master_svg0_1861_090768)"><rect x="0" y="0" width="42" height="42" rx="4" fill="#325BF2" fill-opacity="0.11999999731779099"/><g><ellipse cx="21" cy="15" rx="7" ry="7" fill="#325BF2" fill-opacity="1"/></g><g><path d="M18.0613,24.122462953801953L21,29.999926114501953L23.9387,24.122462953801953Q24.2295,24.146987414501954,24.5174,24.176340714501954Q24.8052,24.205693914501953,25.0896,24.239823114501952Q25.3741,24.273952114501952,25.6545,24.312795114501952Q25.935,24.351639114501953,26.211,24.395126114501952Q26.4871,24.438613114501955,26.7581,24.48666711450195Q27.0292,24.534720114501955,27.2949,24.587252114501954Q27.5605,24.639784114501953,27.8202,24.696701114501952Q28.0799,24.753617114501953,28.3333,24.814815114501954Q28.5866,24.87601311450195,28.8331,24.941382114501952Q29.0796,25.006751114501952,29.3188,25.07617311450195Q29.558,25.145596114501952,29.7894,25.218946114501954Q30.0209,25.29229611450195,30.2443,25.369446114501955Q30.4676,25.446586114501955,30.6824,25.527386114501954Q30.8972,25.608196114501954,31.1031,25.692506114501953Q31.309,25.776816114501955,31.5055,25.864486114501954Q31.7021,25.952166114501953,31.889,26.04303611450195Q32.076,26.133906114501954,32.2529,26.22781611450195Q32.4298,26.321726114501953,32.5964,26.418496114501952Q32.7631,26.515276114501955,32.9191,26.61473611450195Q33.0751,26.714206114501952,33.2202,26.816186114501953Q33.365300000000005,26.918166114501954,33.499300000000005,27.022476114501952Q33.6332,27.126786114501954,33.7558,27.233236114501953Q33.878299999999996,27.33968611450195,33.9893,27.448086114501955Q34.1002,27.556486114501954,34.1994,27.666636114501955Q34.298500000000004,27.776786114501952,34.3856,27.888496114501955Q34.4728,28.000206114501953,34.5477,28.113266114501954Q34.622699999999995,28.22632611450195,34.6854,28.340526114501955Q34.7481,28.454736114501955,34.7984,28.569886114501955Q34.8487,28.685036114501955,34.8865,28.800926114501955Q34.9243,28.916816114501955,34.9495,29.033226114501954Q34.9747,29.149636114501952,34.9874,29.266366114501952Q35,29.383096114501953,35,29.499926114501953Q35,29.634946114501954,34.9831,29.769796114501954Q34.966300000000004,29.904656114501954,34.9326,30.039016114501955Q34.8989,30.17338611450195,34.8485,30.306946114501955Q34.798,30.440496114501954,34.731,30.572926114501954Q34.6639,30.705346114501953,34.5804,30.836316114501955Q34.4969,30.967286114501952,34.3972,31.096496114501953Q34.297399999999996,31.225696114501954,34.1816,31.35282611450195Q34.065799999999996,31.479946114501953,33.9343,31.604686114501952Q33.802800000000005,31.729426114501955,33.6558,31.851476114501953Q33.5089,31.973536114501954,33.346900000000005,32.092606114501955Q33.1849,32.21168611450195,33.0082,32.32748611450195Q32.8315,32.443296114501955,32.6406,32.55556611450196Q32.449600000000004,32.66782611450195,32.2449,32.776276114501954Q32.0402,32.884716114501956,31.8221,32.98908611450195Q31.6041,33.093456114501954,31.3733,33.193496114501954Q31.1425,33.29354611450195,30.8995,33.389016114501956Q30.6565,33.484486114501955,30.4018,33.57515611450195Q30.1472,33.66583611450196,29.8815,33.75148611450195Q29.6158,33.83713611450195,29.3398,33.91756611450195Q29.0637,33.99799611450195,28.778,34.07300611450195Q28.4922,34.147986114501954,28.1974,34.217386114501956Q27.9027,34.286886114501954,27.5996,34.350486114501955Q27.2965,34.41418611450195,26.9858,34.471886114501956Q26.6751,34.52958611450195,26.3576,34.58128611450195Q26.04,34.63288611450196,25.7165,34.678386114501954Q25.3929,34.72388611450195,25.064,34.76308611450195Q24.7351,34.80228611450195,24.4017,34.835086114501955Q24.0683,34.86788611450196,23.7313,34.89428611450195Q23.3942,34.92058611450195,23.0542,34.940386114501955Q22.7143,34.96018611450195,22.3722,34.97348611450195Q22.0302,34.98668611450195,21.6869,34.993286114501956Q21.3437,34.999886114501955,21,34.999886114501955Q20.6563,34.999886114501955,20.3131,34.993286114501956Q19.9698,34.98668611450195,19.6278,34.97348611450195Q19.2857,34.96018611450195,18.9458,34.940386114501955Q18.605800000000002,34.92058611450195,18.268700000000003,34.89428611450195Q17.9317,34.86788611450196,17.598300000000002,34.835086114501955Q17.2649,34.80228611450195,16.93602,34.76308611450195Q16.607129999999998,34.72388611450195,16.283540000000002,34.678386114501954Q15.95995,34.63288611450196,15.64243,34.58128611450195Q15.32491,34.52958611450195,15.01423,34.471886114501956Q14.70354,34.41418611450195,14.40045,34.350486114501955Q14.097349999999999,34.286886114501954,13.80256,34.217386114501956Q13.50778,34.147986114501954,13.22202,34.07300611450195Q12.93626,33.99799611450195,12.66021,33.91756611450195Q12.38416,33.83713611450195,12.118490000000001,33.75148611450195Q11.85283,33.66583611450196,11.59817,33.57515611450195Q11.34352,33.484486114501955,11.1005,33.389016114501956Q10.85749,33.29354611450195,10.62668,33.193496114501954Q10.39588,33.093456114501954,10.17785,32.98908611450195Q9.95982,32.884716114501956,9.75509,32.776276114501954Q9.55036,32.66782611450195,9.35943,32.55556611450196Q9.16849,32.443296114501955,8.9918,32.32748611450195Q8.81511,32.21168611450195,8.6531,32.092606114501955Q8.49109,31.973536114501954,8.344149999999999,31.851476114501953Q8.19721,31.729426114501955,8.06569,31.604686114501952Q7.934165,31.479946114501953,7.818383,31.35282611450195Q7.7026,31.225696114501954,7.602835,31.096496114501953Q7.50307,30.967286114501952,7.419562,30.836316114501955Q7.336055,30.705346114501953,7.269006,30.572926114501954Q7.201957,30.440496114501954,7.151529,30.306946114501955Q7.1011,30.17338611450195,7.0674138,30.039026114501954Q7.0337272,29.904656114501954,7.0168636,29.769796114501954Q7,29.634946114501954,7,29.499926114501953Q7,29.383096114501953,7.0126291,29.266366114501952Q7.0252582,29.149636114501952,7.0504936,29.033226114501954Q7.075729,28.916816114501955,7.113525,28.800926114501955Q7.151321,28.685036114501955,7.20161,28.569886114501955Q7.251899,28.454736114501955,7.31459,28.340526114501955Q7.37728,28.22632611450195,7.45226,28.113266114501954Q7.527239,28.000206114501953,7.614372,27.888496114501955Q7.701505,27.776786114501952,7.800634,27.666636114501955Q7.899763,27.556486114501954,8.01071,27.448086114501955Q8.12166,27.33968611450195,8.24422,27.233236114501953Q8.36678,27.126786114501954,8.50074,27.022476114501952Q8.6347,26.918166114501954,8.77982,26.816186114501953Q8.92493,26.714206114501952,9.08094,26.61473611450195Q9.23695,26.515276114501955,9.40357,26.418496114501952Q9.57018,26.321726114501953,9.74711,26.22781611450195Q9.92404,26.133906114501954,10.11096,26.04303611450195Q10.29788,25.952166114501953,10.49446,25.864486114501954Q10.69103,25.776816114501955,10.89691,25.692506114501953Q11.10278,25.608196114501954,11.31758,25.527386114501954Q11.53238,25.446586114501955,11.75573,25.369446114501955Q11.97907,25.29229611450195,12.21055,25.218946114501954Q12.442029999999999,25.145596114501952,12.68123,25.07617311450195Q12.92043,25.006751114501952,13.166920000000001,24.941382114501952Q13.413409999999999,24.87601311450195,13.66674,24.814815114501954Q13.920069999999999,24.753617114501953,14.17979,24.696701114501952Q14.43951,24.639784114501953,14.70515,24.587252114501954Q14.970780000000001,24.534720114501955,15.24186,24.48666711450195Q15.51294,24.438614114501952,15.78896,24.395126114501952Q16.06499,24.351639114501953,16.34546,24.312795114501952Q16.62594,24.273952114501952,16.91036,24.239823114501952Q17.1948,24.205693914501953,17.482599999999998,24.176340714501954Q17.7705,24.146987414501954,18.0613,24.122462953801953Z" fill-rule="evenodd" fill="#325BF2" fill-opacity="1"/></g></g></svg>